<svg width="312" height="312" viewBox="0 0 312 312" fill="none" xmlns="http://www.w3.org/2000/svg">
<path d="M270.846 272.729C272.436 274.746 274.544 276.294 276.944 277.207C280.364 278.52 284.029 278.464 287.549 277.638C282.737 280.152 277.333 281.421 271.834 281.276C264.111 280.974 256.522 279.159 249.498 275.934L249.498 275.934L249.488 275.929C246.352 274.543 244.179 273.757 242.533 273.21C242.007 273.035 241.544 272.887 241.127 272.754C240.216 272.462 239.522 272.24 238.852 271.955C237.047 271.186 235.511 269.985 231.019 265.562L249.781 238.991C251.293 237.344 253.5 234.629 255.988 231.57C257.506 229.703 259.129 227.707 260.761 225.748C262.937 223.137 265.139 220.578 267.165 218.431C269.201 216.273 271.017 214.577 272.425 213.654C276.378 211.109 279.588 209.46 282.177 208.525C284.776 207.586 286.686 207.389 288.071 207.663C289.416 207.929 290.327 208.651 290.948 209.731C291.588 210.843 291.933 212.361 292.034 214.19C292.193 217.156 291.419 220.362 290.171 223.505C288.926 226.643 287.228 229.671 285.588 232.267C283.771 235.143 281.689 237.961 279.593 240.756C279.366 241.058 279.14 241.36 278.913 241.662C277.05 244.143 275.197 246.61 273.561 249.057C269.908 254.52 267.204 260.066 267.918 265.749L267.918 265.751C268.243 268.3 269.255 270.71 270.846 272.729ZM270.846 272.729L271.459 272.246M270.846 272.729C270.846 272.729 270.846 272.729 270.847 272.729L271.459 272.246M271.459 272.246C269.955 270.339 268.999 268.061 268.692 265.652L290.353 275.988C286.058 277.539 281.419 278.09 277.222 276.479C274.953 275.616 272.961 274.153 271.459 272.246Z" stroke="#E8B51B" stroke-width="1.56"/>
<path d="M232.154 263.211L232.153 263.212C229.018 267.264 224.955 270.501 220.306 272.653C217.745 273.821 214.921 274.293 212.122 274.017L212.045 274.794L212.122 274.017C211.467 273.953 211.09 273.813 210.844 273.66C210.601 273.508 210.423 273.307 210.216 273C210.144 272.894 210.071 272.776 209.991 272.647C209.628 272.065 209.137 271.278 208.162 270.522C207.807 269.519 207.163 268.466 206.406 267.396C205.715 266.42 204.893 265.382 204.046 264.313C203.883 264.106 203.718 263.898 203.554 263.69C201.493 261.078 199.383 258.283 198.299 255.372C189.479 231.509 192.22 208.34 200.266 184.154C200.369 184.305 200.485 184.467 200.613 184.64C201.438 185.744 202.804 187.243 205.212 188.901C210.014 192.208 218.934 196.128 235.927 198.84C242.477 199.888 249.086 200.61 255.669 201.329C256.86 201.459 258.049 201.589 259.237 201.721C267.006 202.582 274.725 203.522 282.315 205.074L282.346 205.08L282.376 205.084C284.943 205.4 287.402 206.306 289.558 207.732C290.267 208.292 290.88 208.953 291.382 209.688C290.688 208.692 289.723 207.835 288.377 207.211L288.349 207.198L288.32 207.187C285.64 206.194 282.684 206.256 280.049 207.36C274.091 209.647 268.799 213.386 264.655 218.238L264.652 218.241C260.619 223.016 258.243 226.621 255.016 231.519C254.515 232.279 253.994 233.07 253.442 233.902C249.339 240.092 243.543 248.575 232.154 263.211ZM292.68 212.673C292.494 211.918 292.235 211.186 291.875 210.502C292.283 211.264 292.581 212.088 292.753 212.949L292.753 212.949C292.771 213.04 292.788 213.13 292.803 213.221C292.766 213.036 292.725 212.854 292.68 212.673Z" stroke="#E8B51B" stroke-width="1.56"/>
<path d="M202.815 263.479C206.345 268.704 211.109 273.011 217.247 273.907L219.1 274.081C210.343 277.371 201.691 277.2 192.215 277.012C191.521 276.998 190.823 276.984 190.12 276.972L190.138 276.192C190.137 276.192 190.135 276.192 190.134 276.192C175.629 275.857 161.185 274.215 146.973 271.286L146.969 271.285C114.326 264.745 94.9737 254.521 85.0139 240.119C75.0647 225.733 74.3471 206.973 79.5064 182.982L78.7439 182.818L79.5064 182.982C93.8443 116.305 133.483 55.9593 191.195 18.9527C192.117 18.366 193.116 17.9106 194.164 17.5994C195.778 17.6045 197.358 18.0731 198.713 18.9503L198.739 18.9672L198.766 18.9819C229.335 35.479 260.696 50.535 292.695 64.4815C253.511 87.0051 225.026 125.227 206.95 166.76L206.95 166.76C196.06 191.792 188.512 219.817 195.433 246.493C196.766 251.631 199.18 258.101 202.815 263.479Z" stroke="#D79B1E" stroke-width="1.56"/>
<path d="M198.291 277.696C180.963 277.836 163.667 276.15 146.691 272.662C122.294 267.932 96.6776 260.052 82.8185 239.262C74.1668 225.534 72.6785 207.555 78.1385 182.684C92.8727 112.783 133.81 52.672 190.458 17.7654C191.561 17.0383 192.783 16.5073 194.067 16.1961C195.993 16.1823 197.881 16.7316 199.499 17.7763C229.022 33.7117 261.069 49.2119 294.687 63.8166C294.793 63.8631 294.885 63.9383 294.95 64.0338C295.016 64.1292 295.055 64.2411 295.06 64.357C295.066 64.4727 295.039 64.588 294.983 64.6896C294.927 64.7911 294.844 64.8751 294.743 64.932C248.423 90.9637 222.136 134.976 208.239 167.318C194.705 198.022 190.99 223.79 196.787 246.14C199.929 258.247 207.099 271.556 217.894 272.577C219.141 272.761 220.41 272.682 221.624 272.345C222.499 271.941 223.379 271.496 224.26 271.011C224.399 270.933 224.562 270.911 224.716 270.949C224.87 270.988 225.005 271.083 225.092 271.217C225.178 271.35 225.209 271.512 225.181 271.668C225.151 271.824 225.064 271.964 224.936 272.058C224.058 272.721 223.069 273.22 222.016 273.535C214.147 277.125 206.349 277.696 198.291 277.696ZM194.145 17.4441C193.074 17.7484 192.056 18.2106 191.123 18.8153C134.751 53.5549 94.0208 113.375 79.3552 182.948C68.7675 231.226 83.0993 259.062 146.936 271.439C161.154 274.401 175.615 276.044 190.135 276.348C199.973 276.534 209.011 276.936 217.932 273.838C205.662 272.367 198.613 258.183 195.586 246.454C189.685 223.834 193.452 197.782 207.1 166.819C220.961 134.563 247.1 90.7375 293.056 64.4625C259.818 49.9903 228.131 34.6462 198.854 18.8449C197.452 17.9336 195.817 17.447 194.145 17.4441Z" fill="#7B7B7B"/>
<path d="M109.1 256.5C25.1009 244 101.6 57 196.6 14L285.6 61C250.826 94.2929 228.3 116.17 203.196 163.964C198.704 172.516 195.983 181.89 194.773 191.475L190.1 228.5L206.1 274.5C206.1 274.5 153.1 280 109.1 256.5Z" fill="#C1C1C1" fill-opacity="0.1"/>
<path d="M287.5 207L204.5 190L201.5 184.5L193.5 219.5L201.5 262L219 273L287.5 207Z" fill="#C1C1C1" fill-opacity="0.1"/>
<path d="M102.037 153.785C130.487 164.216 154.985 173.779 185.363 183.475C183.059 190.78 181.251 198.234 179.951 205.783C160.392 197.089 153.119 199.075 95.1465 175.272L102.037 153.785Z" fill="#E8B51B"/>
<path d="M179.949 206.407C174.038 203.803 167.957 201.603 161.748 199.824C137.643 192.259 115.789 184.42 94.9084 175.849C94.7633 175.79 94.646 175.678 94.5797 175.536C94.5135 175.394 94.5034 175.232 94.5511 175.082C101.579 153.165 101.39 153.406 101.761 153.225C102.133 153.044 101.85 152.975 117.012 158.611C185.743 184.16 186.466 182.061 185.964 183.663C183.666 190.941 181.864 198.366 180.571 205.889C180.546 206.035 180.47 206.168 180.356 206.263C180.242 206.357 180.097 206.408 179.949 206.407ZM95.9161 174.913C116.602 183.386 138.258 191.137 162.093 198.625C168.043 200.251 173.854 202.346 179.473 204.889C180.729 197.785 182.435 190.766 184.58 183.879C154.324 174.199 129.949 164.681 102.431 154.596L95.9161 174.913Z" fill="#7B7B7B"/>
<path d="M173.554 187.871L106.75 164.379C106.6 164.32 106.478 164.204 106.41 164.058C106.343 163.911 106.335 163.742 106.389 163.59C106.443 163.438 106.554 163.312 106.699 163.24C106.844 163.167 107.011 163.154 107.165 163.203L173.761 186.659C173.9 186.707 174.017 186.804 174.091 186.932C174.165 187.058 174.194 187.208 174.169 187.351C174.144 187.497 174.069 187.629 173.956 187.724C173.844 187.818 173.701 187.871 173.554 187.871Z" fill="#7B7B7B"/>
<path d="M162.069 192.793L104.942 172.416C104.786 172.36 104.658 172.244 104.588 172.094C104.517 171.946 104.508 171.773 104.564 171.619C104.619 171.463 104.735 171.335 104.884 171.263C105.034 171.193 105.206 171.183 105.362 171.24L162.28 191.58C162.419 191.63 162.536 191.727 162.61 191.853C162.684 191.981 162.712 192.13 162.685 192.275C162.66 192.421 162.585 192.552 162.472 192.647C162.359 192.741 162.216 192.793 162.069 192.793Z" fill="#7B7B7B"/>
<path d="M121.886 112.944C145.491 122.24 172.915 132.14 200.465 145.911C197.02 153.128 195.052 156.245 192.264 162.315C189.311 161.001 135.673 140.99 113.529 130.984L121.886 112.944Z" fill="#E8B51B"/>
<path d="M192.254 162.939C191.69 162.939 113.508 132.741 112.935 131.202C112.793 130.823 112.779 131.129 121.319 112.679C121.387 112.535 121.507 112.423 121.655 112.365C121.803 112.307 121.967 112.308 122.114 112.367C145.635 121.655 173.282 131.633 200.738 145.359C200.885 145.433 200.996 145.56 201.049 145.715C201.102 145.869 201.093 146.039 201.022 146.186C197.818 152.894 195.442 156.885 192.825 162.58C192.773 162.688 192.694 162.78 192.592 162.844C192.491 162.906 192.374 162.941 192.254 162.939ZM114.352 130.675C136.842 140.767 184.51 158.516 191.94 161.508C194.425 156.162 196.59 152.514 199.628 146.196C172.537 132.702 144.658 122.582 122.205 113.738L114.352 130.675Z" fill="#7B7B7B"/>
<path d="M188.646 151.292L123.784 125.001C123.637 124.935 123.521 124.814 123.461 124.665C123.401 124.515 123.401 124.348 123.462 124.198C123.522 124.048 123.638 123.928 123.786 123.862C123.933 123.796 124.1 123.79 124.252 123.845L188.88 150.089C189.014 150.143 189.126 150.243 189.195 150.37C189.263 150.497 189.287 150.645 189.259 150.787C189.231 150.929 189.154 151.058 189.043 151.15C188.931 151.242 188.791 151.292 188.646 151.292Z" fill="#7B7B7B"/>
<path d="M231 264.5C256.088 281.426 269.338 286.375 289.5 276.5C259.1 281.3 266.833 258.167 274.5 246C287.3 234.8 291.833 217.333 292.5 210C280.1 196.4 246.333 240.667 231 264.5Z" fill="#C1C1C1" fill-opacity="0.1"/>
<path d="M107.613 203.486L95.4727 220.382C120.568 226.287 145.666 231.864 170.927 236.949C172.165 230.791 172.825 224.527 172.895 218.245C155.344 214.813 124.021 206.603 107.613 203.486Z" fill="#E8B51B"/>
<path d="M170.806 237.561C147.306 232.829 122.617 227.408 95.3329 220.989C95.1718 220.951 95.0323 220.85 94.9451 220.709C94.8579 220.569 94.8303 220.399 94.8681 220.238C94.906 220.078 95.0063 219.937 95.147 219.85C95.2877 219.762 95.4573 219.736 95.6184 219.773C122.65 226.135 147.131 231.512 170.433 236.211C171.564 230.461 172.179 224.622 172.272 218.763C154.888 215.31 123.492 207.137 107.498 204.099C107.417 204.083 107.34 204.052 107.272 204.008C107.203 203.963 107.144 203.905 107.098 203.836C107.052 203.769 107.019 203.693 107.003 203.612C106.986 203.532 106.985 203.45 107 203.368C107.015 203.287 107.047 203.211 107.091 203.142C107.136 203.074 107.194 203.014 107.262 202.969C107.33 202.922 107.406 202.89 107.487 202.872C107.567 202.857 107.65 202.855 107.73 202.871C124.037 205.971 155.602 214.217 173.018 217.635C173.16 217.663 173.288 217.739 173.38 217.851C173.472 217.962 173.522 218.103 173.522 218.248C173.459 224.567 172.796 230.868 171.542 237.063C171.526 237.144 171.495 237.222 171.45 237.291C171.405 237.359 171.347 237.42 171.278 237.465C171.21 237.512 171.132 237.545 171.051 237.561C170.971 237.576 170.887 237.576 170.806 237.561Z" fill="#7B7B7B"/>
<path d="M161.905 226.419L105.508 214.095C105.352 214.055 105.217 213.957 105.132 213.818C105.047 213.68 105.019 213.515 105.054 213.358C105.088 213.2 105.183 213.061 105.317 212.972C105.452 212.882 105.616 212.847 105.775 212.877L162.038 225.179C162.199 225.203 162.344 225.285 162.442 225.413C162.542 225.541 162.589 225.702 162.572 225.864C162.554 226.025 162.475 226.173 162.35 226.276C162.227 226.379 162.066 226.43 161.905 226.419Z" fill="#7B7B7B"/>
<path d="M127.752 227.78C123.406 226.811 119.061 225.831 114.718 224.842C111.557 230.441 109.969 234.737 99.7606 238.637C94.5331 235.205 92.8966 228.098 94.817 222.351C96.2268 218.835 98.8115 215.916 102.131 214.092C105.451 212.269 109.3 211.651 113.024 212.345C115.649 212.837 118.437 214.149 120.899 213C122.021 212.367 122.903 211.38 123.407 210.194C123.911 209.007 124.01 207.687 123.686 206.439C122.912 203.987 121.357 201.856 119.258 200.371C109.252 192.975 94.3428 192.945 82.8783 199.279C79.2045 198.194 67.0147 199.879 58.8949 202.832C54.3381 204.603 50.1951 207.294 46.7239 210.737C43.2528 214.18 40.5281 218.3 38.7194 222.842C35.2565 232.071 34.628 242.124 36.9145 251.712L38.3918 250.564C39.047 253.517 42.1639 254.993 44.7878 256.304L82.351 273.363C89.474 276.628 93.8467 277.496 100.667 273.519C119.964 262.952 130.833 236.976 127.752 227.78Z" fill="white"/>
<path d="M128.41 228.52C128.357 227.987 128.277 227.333 127.763 227.215L114.938 224.235C114.855 224.216 114.769 224.215 114.686 224.229C114.602 224.245 114.522 224.277 114.452 224.324C114.381 224.371 114.321 224.433 114.274 224.503C114.228 224.575 114.197 224.655 114.183 224.739C112.88 226.556 112.069 228.709 110.72 230.511C107.942 234.244 103.912 236.851 99.3675 237.852C97.3126 235.957 95.8458 233.509 95.1416 230.804C94.4376 228.098 94.5257 225.246 95.3957 222.589C96.7632 219.215 99.2517 216.415 102.442 214.661C105.633 212.908 109.33 212.307 112.911 212.961C115.563 213.459 118.449 214.833 121.209 213.544C122.456 212.838 123.434 211.738 123.989 210.418C124.545 209.097 124.648 207.629 124.281 206.244C123.464 203.671 121.832 201.433 119.63 199.871C109.448 192.343 94.6188 192.413 83.3946 198.275C74.9948 198.292 66.6504 199.636 58.6686 202.252C54.0326 204.06 49.8178 206.801 46.2857 210.306C42.7535 213.81 39.9795 218.003 38.1359 222.625C34.7392 231.665 34.0316 241.495 36.0986 250.928C35.5682 251.153 35.0393 251.396 34.512 251.644C34.278 251.757 34.4247 251.612 17.04 277.447C16.9477 277.584 16.9135 277.753 16.945 277.915C16.9767 278.077 17.0714 278.221 17.2085 278.313C17.4956 278.506 86.7627 304.705 87.0965 304.803C87.1755 304.826 87.2584 304.834 87.3405 304.826C87.4226 304.819 87.5021 304.794 87.5747 304.755C87.6472 304.716 87.7113 304.661 87.7631 304.597C87.8149 304.533 87.8534 304.46 87.8765 304.38C94.1664 283.088 97.5766 280.955 96.8964 275.999C110.73 269.353 121.39 257.529 126.571 243.083C128.292 238.434 128.921 233.452 128.41 228.52ZM125.396 242.646C120.365 256.685 110.046 268.201 96.6406 274.734C94.5424 266.19 86.8578 259.49 78.8394 255.736C67.8929 250.726 51.9747 244.922 37.2732 250.457C35.3123 241.322 36.0162 231.817 39.3012 223.07C41.0796 218.614 43.7538 214.573 47.1583 211.194C50.5627 207.815 54.6248 205.17 59.093 203.425C66.213 201.088 73.6317 199.787 81.1217 199.561C78.6791 201.063 76.4133 202.835 74.3669 204.844C74.2485 204.96 74.1811 205.119 74.1794 205.284C74.1775 205.45 74.2417 205.609 74.3576 205.727C74.4735 205.846 74.6315 205.913 74.7972 205.915C74.9627 205.916 75.1221 205.852 75.2405 205.737C88.148 193.08 107.511 192.467 118.9 200.882C120.875 202.281 122.342 204.284 123.079 206.59C123.369 207.698 123.286 208.871 122.844 209.927C122.402 210.983 121.624 211.864 120.632 212.435C118.399 213.476 115.766 212.223 113.144 211.73C109.273 211.024 105.276 211.674 101.829 213.574C98.3825 215.473 95.6968 218.502 94.2257 222.153C93.0074 225.878 93.2036 229.921 94.777 233.511C96.3504 237.102 99.1907 239.986 102.756 241.615C102.905 241.678 103.072 241.681 103.223 241.623C103.374 241.564 103.496 241.45 103.564 241.303C103.633 241.156 103.641 240.99 103.588 240.837C103.536 240.684 103.426 240.557 103.282 240.484C102.317 240.035 101.402 239.486 100.552 238.845C105.022 237.642 108.956 234.968 111.72 231.254C113.113 229.397 113.935 227.262 115.125 225.56L127.137 228.349C127.68 233.185 127.084 238.082 125.396 242.646Z" fill="#7B7B7B"/>
<path d="M205.702 80.9555C197.813 82.6965 189.79 84.0755 181.753 85.2206C181.597 73.9028 178.152 62.9126 175.684 51.7586C172.408 36.9932 169.864 13.4169 188.476 8.45451C191.993 7.517 195.696 7.52378 199.209 8.47421C202.722 9.42463 205.923 11.2851 208.488 13.8677C213.901 19.2809 213.41 29.7797 212.262 36.8325C217.851 31.9929 225.049 29.4183 232.44 29.6144C247.869 30.1962 256.163 44.7464 250.811 58.8129C248.557 64.7038 244.081 69.4744 238.345 72.0978C228.153 76.8106 216.508 78.5718 205.702 80.9555Z" fill="#E8B51B"/>
<path d="M181.131 85.2296C180.975 74.0257 177.506 62.9014 175.077 51.8924C169.567 27.0884 174.141 11.8659 188.31 7.85363C191.936 6.90471 195.745 6.9197 199.363 7.89713C202.98 8.87457 206.28 10.7805 208.933 13.4259C214.081 18.574 214.147 27.8825 213.12 35.3377C218.655 31.0841 225.476 28.845 232.455 28.9901C248.336 29.834 256.791 44.5183 251.397 59.0294C249.081 65.0741 244.489 69.97 238.605 72.6654C230.082 76.6512 220.558 78.5747 211.348 80.4342C201.456 82.431 197.714 83.5714 181.844 85.838C181.757 85.8507 181.666 85.8444 181.582 85.8198C181.496 85.7951 181.418 85.7527 181.349 85.695C181.282 85.6374 181.228 85.5661 181.19 85.4859C181.153 85.4058 181.133 85.3182 181.131 85.2296ZM188.632 9.05951C175.031 12.9111 170.876 27.2335 176.295 51.6241C178.682 62.4396 182.067 73.3721 182.365 84.5027C197.577 82.3187 201.388 81.1721 211.102 79.2112C220.24 77.3657 229.689 75.4578 238.09 71.5328C243.678 68.9735 248.039 64.3247 250.237 58.5848C255.336 44.8849 247.439 31.0352 232.414 30.2365C225.19 30.088 218.164 32.6041 212.677 37.3049C212.581 37.3877 212.459 37.4386 212.333 37.4507C212.205 37.4629 212.078 37.4359 211.966 37.3731C211.855 37.3103 211.766 37.2149 211.71 37.0997C211.656 36.9846 211.637 36.8553 211.657 36.7292C212.641 30.6842 213.482 19.7252 208.058 14.3073C205.558 11.8157 202.45 10.0206 199.043 9.10008C195.634 8.17957 192.046 8.16559 188.632 9.05951Z" fill="#7B7B7B"/>
<path d="M231.482 96.5209C231.129 95.8905 230.607 95.3713 229.975 95.0217C229.811 94.9203 174.595 62.4068 167.06 56.198C166.982 56.1342 166.891 56.09 166.793 56.0691C166.695 56.0481 166.593 56.0509 166.498 56.0774C166.402 56.1039 166.313 56.1532 166.239 56.2211C166.166 56.2891 166.11 56.3736 166.076 56.4679C163.921 62.4364 158.717 77.7213 155.572 87.3231C155.543 87.4128 155.534 87.508 155.547 87.6014C155.559 87.6949 155.593 87.7842 155.645 87.8629C156.666 89.3917 192.346 112.253 192.744 112.253C193.098 112.253 192.856 112.349 219.339 90.2793C222.632 92.1419 226.009 94.0685 229.371 96.1121C229.772 96.3302 230.107 96.6538 230.338 97.0481C230.296 97.5292 230.149 97.9955 229.909 98.4149C229.669 98.834 229.341 99.1964 228.948 99.4771C228.29 99.9716 227.126 99.6861 227.076 98.8811C227.068 98.7709 227.086 98.6603 227.126 98.5574C227.167 98.4546 227.229 98.3621 227.31 98.2868C227.368 98.2288 227.415 98.16 227.446 98.0843C227.477 98.0085 227.493 97.9274 227.493 97.8453C227.493 97.7632 227.477 97.6821 227.446 97.6063C227.415 97.5307 227.368 97.4617 227.31 97.4038C226.632 96.7252 225.75 97.942 225.831 98.9638C225.894 99.5342 226.171 100.059 226.608 100.431C227.045 100.804 227.608 100.995 228.181 100.967C228.912 100.869 229.6 100.565 230.163 100.089C230.728 99.6134 231.143 98.9864 231.363 98.2821C231.607 97.7267 231.649 97.1038 231.482 96.5209ZM192.694 110.859C179.144 102.237 159.226 89.3714 156.875 87.3605C157.753 84.6867 158.798 81.548 159.893 78.2907L200.439 104.413L192.694 110.859ZM201.444 103.567L160.302 77.0645C161.371 73.8977 162.47 70.6592 163.495 67.6624L209.405 96.9358L201.444 103.567ZM210.411 96.095L163.912 66.455C165.115 62.9543 166.191 59.8624 166.959 57.7112C174.06 63.0589 218.127 89.6023 218.178 89.6303L210.411 96.095Z" fill="#7B7B7B"/>
<path d="M159.977 97.4086C159.288 97.4786 158.592 97.3377 157.984 97.0048C157.375 96.6718 156.882 96.1621 156.569 95.5431C156.255 94.9242 156.137 94.2249 156.23 93.5373C156.322 92.8498 156.62 92.2064 157.085 91.6919C157.552 91.1774 158.162 90.816 158.836 90.6553C159.511 90.4946 160.219 90.5424 160.865 90.7918C161.513 91.0414 162.069 91.4813 162.461 92.0534C162.854 92.6256 163.063 93.3031 163.063 93.9968C163.104 94.8576 162.801 95.6996 162.224 96.3387C161.645 96.978 160.839 97.3625 159.977 97.4086ZM159.977 91.8331C159.534 91.7603 159.079 91.8252 158.675 92.0192C158.269 92.2131 157.934 92.5267 157.712 92.9175C157.491 93.3084 157.396 93.7577 157.438 94.2048C157.48 94.6517 157.659 95.0749 157.949 95.4172C158.241 95.7595 158.63 96.0044 159.063 96.1186C159.499 96.2328 159.957 96.2111 160.378 96.0562C160.8 95.9013 161.163 95.6206 161.42 95.2525C161.678 94.8842 161.815 94.4458 161.815 93.9968C161.853 93.4674 161.681 92.9443 161.338 92.5398C160.995 92.1353 160.506 91.8816 159.977 91.8331Z" fill="#7B7B7B"/>
<path d="M185.976 114.469C185.267 114.469 184.576 114.259 183.988 113.866C183.398 113.474 182.94 112.915 182.67 112.262C182.398 111.608 182.327 110.889 182.466 110.195C182.603 109.501 182.944 108.863 183.444 108.363C183.944 107.862 184.581 107.521 185.275 107.383C185.969 107.245 186.688 107.316 187.342 107.587C187.996 107.857 188.554 108.316 188.947 108.904C189.34 109.492 189.551 110.184 189.551 110.892C189.548 111.839 189.17 112.747 188.501 113.417C187.83 114.087 186.922 114.465 185.976 114.469ZM185.976 108.562C185.515 108.562 185.064 108.699 184.681 108.954C184.299 109.21 183.999 109.574 183.823 109.999C183.646 110.425 183.6 110.893 183.689 111.345C183.779 111.797 184.001 112.212 184.327 112.538C184.653 112.864 185.068 113.086 185.518 113.176C185.971 113.266 186.439 113.22 186.865 113.043C187.291 112.867 187.654 112.569 187.91 112.186C188.166 111.803 188.303 111.352 188.303 110.892C188.3 110.275 188.053 109.684 187.618 109.248C187.183 108.812 186.592 108.566 185.976 108.562Z" fill="#7B7B7B"/>
</svg>
