<svg width="384" height="384" viewBox="0 0 384 384" fill="none" xmlns="http://www.w3.org/2000/svg">
<path d="M289.954 318.266C289.801 322.707 287.425 326.375 284.629 326.375C282.988 326.375 281.488 325.11 280.503 323.165C279.926 323.451 279.344 323.739 278.754 324.026C280.062 326.63 282.186 328.295 284.629 328.295C287.515 328.295 289.987 328.132 292.347 325.896C295.02 323.367 295.944 319.1 295.386 315.252C293.67 316.228 291.86 317.237 289.954 318.268V318.266Z" fill="#D79B1E"/>
<path d="M120.093 312C117.445 309.106 111.949 309.864 110.663 310.64C103.557 313.277 103.982 328.362 111.303 330.049C113.597 330.579 117.387 330.138 119.75 327.904C123.855 324.019 123.608 315.843 120.093 312ZM107.472 320.247C107.472 315.904 109.748 312.236 112.44 312.236C115.133 312.236 117.409 315.906 117.409 320.247C117.409 324.588 115.133 328.26 112.44 328.26C109.748 328.26 107.472 324.59 107.472 320.247Z" fill="#D79B1E"/>
<path d="M194.803 354.396C192.374 351.74 189.304 352.005 186.596 352.239C181.229 352.71 178.481 358.309 178.481 363.698C178.481 369.858 181.941 374.871 186.19 374.871C189.357 374.871 191.923 374.679 194.422 372.317C199.003 367.983 198.792 358.754 194.803 354.396ZM180.397 363.698C180.397 358.679 183.049 354.442 186.188 354.442C189.327 354.442 191.979 358.679 191.979 363.698C191.979 368.716 189.327 372.953 186.188 372.953C183.049 372.953 180.397 368.716 180.397 363.698Z" fill="#D79B1E"/>
<path d="M363.241 202.217C311.927 176.03 259.159 156.962 206.597 145.147C199.149 136.666 190.106 126.568 182.549 118.277C174.032 108.933 166.707 100.557 158.082 95.8C157.917 92.8144 155.844 90.6246 152.318 89.7464C149.081 88.943 145.755 89.6314 142.819 90.2431C128.28 93.2631 39.1013 111.619 25.1246 117.215C22.2541 118.363 20.5974 119.341 19.7882 122.238C18.747 125.98 18.9349 132.489 22.6165 135.251C24.4266 136.61 26.881 136.351 28.8695 135.22C31.042 134.597 33.8933 133.807 37.2854 132.883C40.4876 135.983 38.8788 134.25 77.6929 177.522C78.0074 211.321 84.7665 249.553 97.4163 279.719C97.5198 279.97 97.4163 279.884 100.797 282.815C101.823 287.362 103.094 294.062 106.419 303.686C108.218 308.888 112.774 311.762 117.178 314.548C139.718 328.803 162.237 341.754 185.226 353.585C185.543 353.516 185.865 353.479 186.193 353.479C188.076 353.479 189.778 354.647 191.002 356.528C192.798 357.435 194.597 358.334 196.398 359.228C200.148 361.086 204.344 363.078 208.614 363.078C224.129 363.078 281.669 335.877 293.028 329.94C296.336 328.21 303.657 325.255 305.053 321.497C306.332 318.059 302.976 315.693 299.843 313.833C306.035 310.264 312.073 306.483 317.944 302.495C319.077 301.72 347.109 253.541 363.713 203.37C363.864 202.913 363.654 202.426 363.239 202.213L363.241 202.217ZM30.1235 131.35C28.998 133.511 25.6826 135.155 23.767 133.717C21.117 131.728 20.5974 126.478 21.6348 122.754C22.1602 120.873 23.3893 119.627 25.3739 119.627C26.8389 119.627 28.2348 120.355 28.9347 121.184C30.9615 123.588 31.159 129.364 30.1235 131.35ZM206.672 147.13C258.325 158.786 310.105 177.593 360.635 203.049C335.909 214.867 310.869 225.547 285.21 233.131C283.815 233.543 264.799 239.915 239.649 245.767C228.136 242.826 216.282 239.622 204.311 236.009C206.054 206.938 206.804 177.445 206.67 147.131L206.672 147.13ZM150.548 286.089C138.65 280.21 126.948 273.479 115.719 265.667C114.609 254.59 113.87 243.468 113.502 232.341C125.609 239.877 138.198 246.396 150.98 252.112C150.491 263.428 150.345 274.764 150.548 286.089ZM150.59 288.248C150.799 297.876 151.26 307.49 151.971 317.07C140.892 310.621 130.056 303.423 119.632 295.573C118.16 286.486 116.942 277.347 115.976 268.175C127.155 275.845 138.784 282.461 150.59 288.248ZM151.072 250.049C138.217 244.268 125.573 237.67 113.429 230.032C113.144 219.967 113.161 209.901 113.485 199.857C126.296 207.475 139.686 214.069 153.323 219.854C152.297 229.883 151.547 239.956 151.072 250.049ZM234.817 280.014C248.77 276.641 262.567 272.728 276.16 268.29C272.572 279.611 268.86 290.942 265.042 302.221C252.517 306.591 239.785 310.462 226.884 313.816C229.818 302.915 232.466 291.636 234.817 280.014ZM224.874 313.9C213.13 310.462 200.967 306.644 188.691 302.199C190.894 291.099 192.96 279.955 194.877 268.802C207.772 272.986 220.535 276.612 232.886 279.897C230.512 291.594 227.839 302.94 224.874 313.9ZM235.233 277.939C237.198 268.043 238.953 257.901 240.489 247.535C255.192 244.101 269.87 240.042 284.474 235.377C284.118 244.011 281.009 252.92 276.871 266.039C263.184 270.545 249.288 274.517 235.233 277.939ZM233.264 278.012C220.898 274.722 208.114 271.09 195.205 266.893C196.921 256.822 198.518 246.747 199.989 236.692C213.055 240.723 226.008 244.249 238.562 247.464C237.014 257.882 235.246 268.072 233.264 278.012ZM193.362 266.289C179.903 261.859 166.324 256.81 152.951 250.887C153.413 240.774 154.153 230.681 155.169 220.633C169.363 226.571 183.809 231.651 198.133 236.117C196.666 246.161 195.073 256.227 193.36 266.289H193.362ZM152.861 252.945C166.163 258.803 179.66 263.807 193.034 268.2C191.123 279.333 189.065 290.457 186.868 301.536C175.409 297.331 163.863 292.566 152.479 287.036C152.257 275.677 152.385 264.3 152.861 252.945ZM186.49 303.438C184.594 312.924 182.595 322.375 180.5 331.769C171.57 327.752 162.701 323.223 153.979 318.23C153.24 308.577 152.755 298.89 152.527 289.189C163.779 294.612 175.177 299.296 186.488 303.438H186.49ZM188.313 304.102C200.549 308.525 212.668 312.326 224.372 315.75C221.628 325.746 218.641 335.416 215.417 344.73C204.39 341.512 193.295 337.428 182.289 332.565C184.398 323.127 186.407 313.632 188.315 304.1L188.313 304.102ZM226.307 315.946C239.135 312.64 251.8 308.828 264.262 304.522C260.994 314.128 257.652 323.697 254.247 333.184C242.406 337.633 230.148 341.43 217.505 344.555C220.669 335.353 223.609 325.806 226.307 315.946ZM266.559 303.72C279.034 299.339 291.3 294.464 303.319 289.111C299.868 298.094 296.23 306.995 292.411 315.793C280.973 322.003 269.023 327.507 256.605 332.287C259.992 322.826 263.313 313.292 266.559 303.72ZM267.339 301.411C271.14 290.154 274.835 278.848 278.405 267.552C291.074 263.357 303.567 258.705 315.844 253.61C312.276 264.693 308.42 275.694 304.288 286.576C292.213 292.012 279.882 296.963 267.339 301.411ZM279.117 265.295C283.082 252.686 286.196 243.731 286.413 234.753C299.54 230.508 312.606 225.772 325.568 220.558C322.83 230.824 319.841 241.052 316.61 251.215C304.316 256.36 291.807 261.058 279.117 265.295ZM202.353 235.413C159.752 222.412 115.817 204.154 80.5059 174.09C111.412 162.866 145.076 154.568 180.584 149.369C188.561 148.201 196.796 146.907 204.75 146.884C204.888 177.284 204.104 206.255 202.353 235.413ZM42.9459 131.352C78.4484 121.805 151.565 103.006 153.442 101.94C154.443 101.372 155.637 100.693 156.563 99.7558C164.299 105.361 169.079 111.523 198.881 145.183C192.685 145.607 186.509 146.566 180.31 147.471C144.782 152.656 111.094 160.966 80.1492 172.18C72.5271 163.495 51.2697 139.367 42.9459 131.352ZM79.597 175.833C89.6581 184.365 100.402 191.947 111.606 198.729C111.263 208.737 111.22 218.767 111.479 228.794C100.966 222.052 90.845 214.516 81.3112 206.039C80.2144 195.93 79.6257 185.773 79.597 175.833ZM81.6314 208.877C91.1096 217.147 101.142 224.512 111.544 231.11C111.88 242.161 112.584 253.205 113.648 264.21C104.572 257.75 95.8209 250.565 87.5488 242.527C84.9755 231.655 82.9794 220.311 81.6314 208.877ZM99.0979 278.777C94.9178 268.777 91.3186 257.685 88.3925 245.99C96.5093 253.658 105.058 260.534 113.901 266.737C114.827 275.826 116.003 284.886 117.423 293.897C111.147 289.088 105.027 284.041 99.0979 278.777ZM303.256 320.83C302.165 323.766 294.834 326.834 292.14 328.241C277.075 336.112 221.417 361.786 208.156 361.153C204.52 360.984 201.205 359.471 197.249 357.512C170.506 344.264 144.198 329.399 118.992 313.43C114.626 310.665 109.907 307.914 108.231 303.06C106.185 297.139 104.501 291.034 103.215 284.894C135.642 312.441 175.14 335.144 215.761 346.831C215.925 346.877 216.087 346.879 216.251 346.841C245.672 339.725 273.057 329.018 297.95 314.916C300.182 316.366 304.198 318.303 303.256 320.83ZM316.692 301.03C309.739 305.745 302.554 310.167 295.153 314.287C298.878 305.616 302.43 296.848 305.801 288C314.207 284.198 322.491 280.162 330.638 275.893C326.128 284.597 321.447 293.049 316.694 301.03H316.692ZM332.166 272.919C323.84 277.343 315.367 281.523 306.761 285.458C310.84 274.622 314.648 263.671 318.17 252.642C328.293 248.387 338.266 243.829 348.072 238.98C343.205 250.35 337.834 261.817 332.166 272.921V272.919ZM349.226 236.262C339.297 241.227 329.194 245.886 318.935 250.237C322.132 240.099 325.089 229.9 327.796 219.659C339.008 215.099 350.143 210.181 361.178 204.913C357.774 214.993 353.73 225.569 349.226 236.262Z" fill="#D79B1E"/>
<path d="M359.44 208.519L282.156 234.766C220.144 260.953 167 228.988 76.5537 183.001L86.9311 261.408C88.6731 274.569 96.1127 286.299 107.276 293.485L160.497 327.747C188.986 346.086 224.943 348.356 255.512 333.745L322.256 301.842L359.44 208.519Z" fill="#C1C1C1" fill-opacity="0.1"/>
<path d="M222.691 228.205C247.694 217.672 266.175 195.224 272.761 170.017C276.916 154.113 276.663 135.841 288.709 112.994C292.937 104.975 298.747 95.6793 306.921 91.3802C309.57 89.9881 312.411 89.4723 315.299 88.8395C315.982 88.69 316.03 87.5222 315.299 87.4091C310.214 86.6267 305.054 89.572 301.242 92.6937C297.01 96.1606 293.664 100.657 290.849 105.313C272.428 135.751 276.822 156.64 268.71 178.425C260.558 200.309 243.404 218.368 222.634 228.059C222.553 228.096 222.613 228.238 222.695 228.203L222.691 228.205Z" fill="#D79B1E"/>
<path d="M345.014 76.1493C343.647 75.9479 342.244 76.04 340.913 76.4177C340.781 75.689 340.476 74.9949 339.992 74.4331C340.167 73.7581 340.236 72.7438 341.304 71.4533C341.641 71.0449 341.584 70.4409 341.177 70.1034C340.771 69.7659 340.165 69.8234 339.828 70.2299C339.074 71.1427 338.539 72.2107 338.257 73.3516C335.667 72.7457 334.113 74.1685 333.624 75.9671C330.785 73.2922 327.766 70.7822 324.622 68.4869C323.272 67.5013 322.016 67.4553 320.693 69.2827C318.979 71.6431 317.18 74.7188 318.497 77.5874C319.214 79.1482 320.599 80.0897 322.219 80.6228C320.877 83.7713 322.405 87.359 326.323 88.0013C325.995 88.4634 325.694 88.9083 325.425 89.3321C325.132 89.798 324.585 90.6666 324.71 91.6637C324.902 93.1709 326.848 95.0596 329.753 95.0596C334.092 95.0596 336.869 91.1173 337.193 86.684C337.331 84.8106 337.082 82.9794 336.729 81.1923C338.378 81.2383 340.242 80.0974 340.782 78.4694C340.815 78.4618 340.846 78.4522 340.876 78.4407C342.107 77.99 343.44 77.852 344.736 78.0457C345.256 78.1224 345.747 77.7619 345.824 77.2365C345.9 76.7111 345.54 76.2259 345.014 76.1493ZM320.238 76.7878C319.337 74.8243 320.837 72.3488 322.242 70.4102C322.687 69.7947 322.881 69.7275 322.944 69.7275C323.341 69.6604 329.68 74.8204 333.095 78.1128C329.954 79.6621 321.818 80.2297 320.236 76.7897L320.238 76.7878ZM323.862 84.0666C323.506 83.1807 323.588 82.0935 324.142 81.0657C324.93 81.1808 325.734 81.2287 326.51 81.2287C328.501 81.2287 331.005 80.9622 333.011 80.2278C330.915 82.385 329.124 84.3926 327.694 86.1912C326.117 86.2238 324.443 85.5105 323.864 84.0685L323.862 84.0666ZM335.283 86.544C335.099 89.0483 334.069 91.1422 332.455 92.2888C330.892 93.3991 328.303 93.5448 326.938 91.9936C326.476 91.4682 326.499 91.2266 327.047 90.356C328.144 88.6188 330.361 85.6505 334.767 81.1673C335.135 82.9545 335.412 84.7665 335.281 86.5459L335.283 86.544ZM338.451 78.6113C336.815 79.8193 335.755 79.3074 335.442 77.7734C335.179 76.4848 335.678 75.1368 337.124 75.1368C338.077 75.1368 338.758 75.5337 339.007 76.6497C339.145 77.2633 339.082 78.1434 338.451 78.6094V78.6113Z" fill="#D79B1E"/>
<path d="M227.755 97.7385C226.319 93.1346 224.509 87.8538 221.06 84.4426C221.18 82.6593 220.985 80.83 220.67 79.1273C216.454 56.3953 195.493 35.3143 172.577 31.0402C171.118 30.7679 170.474 32.9577 171.956 33.2933C185.179 36.298 196.97 43.1818 205.856 53.4769C214.517 63.515 219.186 76.2089 219.357 83.0217C217.898 82.0208 216.224 81.3957 214.413 81.5165C211.434 81.7159 208.245 83.689 207.438 86.6995C206.674 89.547 208.594 92.3254 211.411 92.9218C215.027 93.6888 219.259 91.7943 220.62 87.037C223.311 90.4022 225.05 95.6446 226.244 99.6925C230.935 115.592 230.189 132.787 225.445 148.579C220.824 163.959 212.546 177.833 202.659 190.384C201.49 191.869 200.31 193.341 199.156 194.837C198.847 195.236 199.503 195.711 199.844 195.368C209.894 185.292 220.95 168.13 226.557 151.005C232.15 133.912 233.147 115.015 227.757 97.7366L227.755 97.7385ZM216.383 90.337C214.343 91.5891 210.619 91.9074 209.485 89.2651C208.251 86.385 211.758 83.8942 214.252 83.6238C216.143 83.4187 217.821 84.2719 219.207 85.5241C218.9 87.4799 218.089 89.2881 216.383 90.337Z" fill="#D79B1E"/>
<path d="M164.4 23.4314C166.591 20.8946 167.399 17.1573 166.089 12.7893C165.52 10.8871 164.71 9.51035 163.621 8.58036C163.22 8.23713 162.62 8.28315 162.275 8.68007C158.172 13.3971 155.2 18.1257 152.057 23.2704C150.703 21.8744 147.921 21.418 146.27 22.7009C145.685 22.488 144.322 22.2809 142.747 20.8562C142.354 20.4996 141.748 20.5302 141.394 20.9233C141.039 21.3164 141.068 21.9223 141.461 22.279C142.487 23.2071 143.704 23.9108 145.018 24.3365C144.695 25.0939 144.596 25.8168 144.678 26.4975C144.653 26.5205 144.628 26.5435 144.605 26.5685C143.882 27.3585 142.958 27.9395 141.93 28.2463C141.422 28.3977 141.135 28.9308 141.286 29.4389C141.434 29.9356 141.961 30.2366 142.479 30.0832C143.612 29.7458 144.651 29.1552 145.52 28.3613C146.509 29.4409 148.019 30.089 149.535 29.7937C149.894 29.7227 150.235 29.6 150.552 29.4351C150.396 32.344 150.134 37.3908 148.646 45.9889C148.542 46.5852 149.008 47.1164 149.599 47.1106C157.121 47.0435 162.919 39.8145 162.17 33.5923C165.008 33.0611 166.712 31.2395 167.13 29.2549C167.627 26.8944 166.258 24.6778 164.4 23.4295V23.4314ZM163.034 10.7414C163.525 11.3933 163.928 12.2505 164.254 13.3377C166.461 20.6951 161.819 26.1619 153.353 24.8254C156.457 19.7364 159.228 15.2571 163.034 10.7395V10.7414ZM146.973 27.1015C146.456 26.5838 146.511 25.7804 146.736 25.1994C147.485 23.2646 150.084 23.719 150.805 24.7507C151.8 26.1773 149.399 29.5252 146.973 27.1015ZM150.743 45.0992C152.325 35.4944 152.454 29.1532 152.624 27.5982C154.448 27.6097 156.864 28.3613 158.544 30.1446C163.113 34.9901 158.204 44.0465 150.743 45.0992ZM165.257 28.8599C164.919 30.461 163.311 31.4677 161.74 31.7457C161.366 30.7026 160.776 29.7151 159.94 28.8292C159.171 28.0142 158.287 27.3738 157.361 26.8887C159.516 26.6662 161.414 25.9395 162.927 24.8044C164.762 25.7804 165.554 27.4524 165.257 28.8599Z" fill="#D79B1E"/>
</svg>
