<svg width="312" height="312" viewBox="0 0 312 312" fill="none" xmlns="http://www.w3.org/2000/svg">
<path d="M75.8505 92.3076C71.7824 90.9225 67.6843 89.5272 63.4764 88.129L63.7867 88.0616C64.8772 87.8246 66.4447 87.4837 68.3528 87.0683C72.169 86.2374 77.3476 85.108 82.7975 83.9141C93.6951 81.5269 105.683 78.8807 110.026 77.8485C118.648 75.7991 125.674 75.6635 133.899 79.0389C138.098 80.7622 148.856 83.7383 165.685 87.0157C182.307 90.2527 204.874 93.788 232.945 96.7026C223.144 102.88 203.696 112.192 189.837 117.986C186.832 118.047 178.357 117.178 166.994 115.432C155.553 113.675 141.219 111.036 126.674 107.584L126.584 107.964L126.674 107.584C107.046 102.929 91.6742 97.6952 75.8505 92.3076Z" stroke="white" stroke-width="0.78"/>
<path d="M36.7499 240.376L36.7429 240.396C35.8059 243.161 35.7347 246.144 36.5383 248.95C37.5406 251.055 39.0806 252.858 41.0029 254.178L41.0091 254.183C50.1738 260.743 60.477 263.26 73.3035 266.394C74.0433 266.575 74.7914 266.757 75.5482 266.943C89.4139 270.346 106.109 274.724 127.136 285.617C129.848 287.022 132.538 288.479 135.228 289.935C143.466 294.395 151.701 298.853 160.549 301.826C164.571 303.177 169.222 303.998 172.644 301.864C174.755 300.548 176.027 298.439 176.815 296.005C177.605 293.568 177.898 290.842 178.077 288.34C178.077 288.34 178.077 288.34 178.077 288.34L178.466 288.367C180.685 256.932 180.817 231.327 180.933 208.871C181.109 174.791 181.248 147.963 188.587 119.01L36.7499 240.376ZM36.7499 240.376L36.7546 240.354C38.6309 231.74 40.5692 223.213 42.5008 214.717C51.6669 174.398 60.6809 134.748 62.1982 89.4785M36.7499 240.376L62.1982 89.4785M62.1982 89.4785C70.103 91.7879 77.8698 94.4631 85.6387 97.1389C87.5414 97.7943 89.4442 98.4496 91.3491 99.0997C101.185 102.456 111.073 105.668 121.263 107.983L121.35 107.602L121.264 107.983L121.499 108.036C127.962 109.504 164.965 117.907 188.19 118.992C182.124 142.96 180.982 165.474 180.669 191.803L62.1982 89.4785Z" stroke="#D79B1E" stroke-width="0.78"/>
<path d="M246.884 233.947L246.882 233.94C242.668 217.338 239.486 200.491 237.358 183.496C234.239 161.563 233.099 139.396 233.952 117.259L233.952 117.254C233.982 116.678 234.026 115.586 234.082 114.186C234.158 112.289 234.257 109.825 234.376 107.313C234.58 102.973 234.844 98.4795 235.15 96.638M246.884 233.947L235.535 96.7012M246.884 233.947C249.557 243.711 252.235 253.582 246.315 262.528L246.315 262.529C242.656 268.112 236.717 271.28 230.862 274.393C230.861 274.393 230.859 274.394 230.858 274.395L178.11 300.798L246.884 233.947ZM235.15 96.638C235.15 96.6377 235.15 96.6374 235.15 96.6372L235.535 96.7012M235.15 96.638C235.15 96.6385 235.15 96.6389 235.15 96.6394L235.535 96.7012M235.15 96.638C235.162 96.5631 235.153 96.4882 235.125 96.4219L235.125 96.4217C235.096 96.3537 235.048 96.2954 234.988 96.2536L234.987 96.2535C234.927 96.2115 234.855 96.1876 234.782 96.1846M235.535 96.7012C235.558 96.5554 235.541 96.4056 235.484 96.2696C235.426 96.1334 235.331 96.0165 235.209 95.9326C235.087 95.8485 234.944 95.8008 234.797 95.7949M234.782 96.1846L234.797 95.7949M234.782 96.1846C234.782 96.1846 234.782 96.1846 234.781 96.1845L234.797 95.7949M234.782 96.1846C234.707 96.1817 234.634 96.1999 234.57 96.2366M234.797 95.7949C234.649 95.7891 234.502 95.8253 234.374 95.8994M234.374 95.8994L234.572 96.2359C234.571 96.2362 234.571 96.2364 234.57 96.2366M234.374 95.8994C234.216 95.9924 234.186 96.0163 234.156 96.0166C234.133 96.0169 234.11 96.0029 234.025 95.9961M234.374 95.8994L234.57 96.2368C234.57 96.2368 234.57 96.2367 234.57 96.2366M234.57 96.2366C234.537 96.256 234.51 96.2723 234.487 96.2862L234.45 96.308C234.441 96.3135 234.433 96.3186 234.425 96.3232L234.42 96.3258C234.396 96.3403 234.326 96.3818 234.241 96.3983C234.184 96.4096 234.133 96.4079 234.093 96.4023C234.077 96.4002 234.061 96.397 234.05 96.3945C234.04 96.3924 234.034 96.3908 234.033 96.3907C234.031 96.3902 234.029 96.3897 234.026 96.3891L234.025 95.9961M234.025 95.9961C200.31 93.3123 166.903 87.6217 134.201 78.9921C129.051 77.3224 123.697 76.3662 118.289 76.1498C117.541 76.1873 116.958 76.2094 116.377 76.2484C112.65 76.4985 108.97 77.4439 62.049 87.5893C61.6333 87.9711 61.2893 88.4245 61.0335 88.9277L61.4233 88.9403C61.4223 88.9699 61.4214 88.9995 61.4204 89.0291M234.025 95.9961L178.11 300.798C177.586 301.06 177.075 301.339 176.561 301.618C175.026 302.454 173.467 303.302 171.461 303.772C168.813 304.392 165.376 304.343 160.288 302.562L160.279 302.559C151.902 299.86 144.518 295.853 136.174 291.325C133.555 289.904 130.841 288.432 127.973 286.933C115.98 280.664 101.35 273.967 79.7562 268.699C77.5225 268.141 75.2666 267.614 73.0061 267.086C61.5363 264.405 49.9477 261.697 40.5393 254.808L40.5394 254.807L40.5279 254.8C38.487 253.414 36.8588 251.502 35.8153 249.267C34.939 246.289 34.9947 243.114 35.9755 240.168L35.9821 240.148L35.9865 240.128C37.8728 231.476 39.8141 222.938 41.744 214.45C50.9752 173.849 59.9483 134.383 61.4204 89.0291M61.4204 89.0291C61.6343 88.6279 61.91 88.263 62.2373 87.9476C109.087 77.8175 112.727 76.8825 116.414 76.6365C116.985 76.5984 117.557 76.5768 118.291 76.5402C123.658 76.7565 128.971 77.7062 134.08 79.3631L134.091 79.3664L134.101 79.3692C166.826 88.0047 200.256 93.6992 233.994 96.3848L61.4204 89.0291ZM118.327 77.3295L118.309 77.3287L118.291 77.3296C117.564 77.3664 117.006 77.3867 116.45 77.4235C112.937 77.6557 109.468 78.5465 63.8916 88.403L63.8631 89.1581C71.495 91.4244 79.2759 94.0473 87.025 96.6595C89.5919 97.5248 92.1552 98.3889 94.7085 99.2385C104.963 102.651 115.051 105.827 124.511 107.885C151.901 113.858 167.743 116.256 176.897 117.274C181.476 117.783 184.38 117.947 186.216 118.04C186.34 118.047 186.459 118.053 186.572 118.058C187.306 118.095 187.834 118.122 188.22 118.161C188.442 118.183 188.603 118.208 188.72 118.237C188.839 118.266 188.89 118.295 188.909 118.309L189.085 118.439L189.287 118.357C203.954 112.412 218.219 105.522 231.992 97.7286L233.093 97.1058L231.833 97.0005C198.754 94.2384 165.98 88.5906 133.883 80.1216C128.849 78.4874 123.615 77.5481 118.327 77.3295ZM73.1034 266.311L73.1035 266.311C99.5801 272.488 115.294 279.385 127.446 285.72C130.688 287.41 133.682 289.064 136.565 290.656C144.473 295.023 151.536 298.924 160.539 301.823C165.608 303.595 169.706 303.659 172.646 301.855L172.652 301.852C174.789 300.491 176.04 298.352 176.808 295.949C177.574 293.55 177.87 290.852 178.071 288.33L178.072 288.323C179.855 259.199 180.024 234.841 180.174 213.26C180.224 206.119 180.271 199.283 180.374 192.679C180.789 166.105 182.105 143.278 188.07 119.446L188.185 118.985L187.711 118.961C166.821 117.901 134.949 110.952 124.347 108.639L124.346 108.639C114.721 106.546 104.448 103.301 94.0039 99.8213C91.5756 99.0123 89.1379 98.1905 86.6971 97.3676C78.6473 94.6539 70.5646 91.929 62.6799 89.6143L62.1978 89.4728L62.1803 89.975C60.6165 135.025 51.6486 174.47 42.5011 214.706C40.5722 223.19 38.6353 231.71 36.7582 240.324C35.7907 243.117 35.7171 246.142 36.5478 248.978L36.5567 249.008L36.5704 249.037C37.5652 251.114 39.0958 252.89 41.0048 254.179C50.2955 260.984 61.8978 263.694 73.0297 266.294L73.1034 266.311Z" stroke="#D79B1E" stroke-width="0.78"/>
<path d="M151.401 130.26C146.383 130.29 147.033 138.643 149.635 140.767C141.698 166.819 145.915 196.276 136.701 221.333C134.865 226.309 131.227 230.417 126.508 232.839C112.312 239.494 96.2255 234.182 87.9091 230.426C78.0078 225.91 71.8598 216.155 71.0408 203.67C70.4168 193.292 71.6867 182.61 72.9206 172.277C74.5727 158.432 75.9579 142.355 81.8703 123.022C82.2702 123.211 82.7043 123.316 83.1463 123.332C83.5884 123.348 84.0289 123.273 84.4412 123.114C88.0557 121.167 86.6049 112.83 82.914 112.83C82.2858 112.776 81.6557 112.908 81.102 113.21C80.5486 113.511 80.0963 113.97 79.8018 114.527C79.1697 115.846 78.9708 117.332 79.2339 118.771C78.5972 120.084 78.0955 121.46 77.7363 122.875C71.838 143.364 70.6789 157.234 68.9411 171.801C67.6931 182.309 66.3889 193.173 67.041 203.923C67.9598 217.937 74.9595 228.925 86.2524 234.076C99.5124 240.068 115.073 242.627 128.255 236.446C133.904 233.565 138.261 228.665 140.462 222.718C150.181 196.282 145.443 167.157 153.775 140.949C157.434 137.926 154.585 128.895 151.401 130.26ZM83.7595 121.708C83.5285 121.77 83.2874 121.785 83.0505 121.752C82.8135 121.719 82.5858 121.639 82.3805 121.516C82.8407 120.334 83.3586 119.513 83.9873 119.6C84.2963 119.645 84.6116 119.617 84.9077 119.518C84.8885 119.945 84.7757 120.363 84.5773 120.743C84.3788 121.122 84.0997 121.453 83.7595 121.713V121.708ZM82.7112 114.385C83.4756 114.385 83.9295 114.924 84.2821 115.602C83.6441 115.522 82.996 115.582 82.3837 115.779C81.7714 115.976 81.2097 116.304 80.7378 116.741C80.8844 115.46 81.4101 114.39 82.7112 114.39V114.385ZM150.074 138.84C148.925 137.04 148.514 131.82 151.426 131.82C152.761 131.82 153.392 133.224 153.715 134.516C153.236 134.392 152.728 134.451 152.29 134.679C151.851 134.907 151.512 135.29 151.339 135.753C150.016 139.274 150.259 139.233 150.074 138.84Z" fill="#D79B1E"/>
<path d="M189.937 17.9883C177.886 9.32559 160.679 7.94187 143.914 14.2848C129.238 19.8384 116.586 30.3731 104.635 41.2291C98.4776 46.8218 91.4856 53.146 83.1942 53.9182C75.1072 54.6623 65.5428 47.7234 67.7846 39.8782C69.5801 33.5945 64.2465 29.6727 59.398 26.9583L58.6367 28.3186C63.2528 30.9035 67.7705 34.2466 66.2807 39.4492C63.7317 48.3724 74.0948 56.3331 83.3362 55.4704C92.1736 54.6483 99.3043 48.129 105.83 42.2478C117.861 31.4058 129.898 21.2533 144.463 15.7419C160.495 9.67659 177.57 11.0213 189.023 19.2534C201.466 28.1953 206.637 47.5487 197.477 59.8321C186.089 74.7598 161.597 73.0563 147.855 86.3974C141.406 92.6374 138.114 101.478 135.482 109.829L137.019 110.141C144.24 87.2835 151.215 82.7797 172.381 75.7395C182.209 72.4635 192.371 69.0892 198.722 60.7635C208.436 47.7562 203.072 27.4294 189.937 17.9883Z" fill="#D79B1E"/>
<path d="M39.881 42.2929L39.878 42.2937C39.88 42.2931 39.882 42.2926 39.884 42.2921C39.883 42.2924 39.882 42.2927 39.881 42.2929ZM40.1185 42.2253C40.0867 42.1536 40.0495 42.0607 40.0072 41.9448C39.8665 41.5594 39.6929 40.9862 39.4962 40.2743C39.1037 38.8538 38.629 36.9184 38.1529 34.9146C37.862 33.6907 37.5715 32.4451 37.2993 31.2778C37.1258 30.5336 36.9597 29.8212 36.8056 29.1665C36.5366 28.0233 36.3021 27.0463 36.1303 26.3927C38.4872 27.1112 40.525 28.6374 41.8774 30.7142C43.3533 32.9806 43.8995 35.7284 43.4027 38.387L43.4025 38.3869L43.4005 38.4C43.2602 39.3225 42.8517 40.1834 42.226 40.8756C41.6555 41.5066 40.9274 41.972 40.1185 42.2253Z" stroke="#D79B1E" stroke-width="0.78"/>
<path d="M43.1863 17.8486C41.6521 21.1895 38.6302 24.0418 35.129 24.5783C36.2241 21.2526 37.515 18.0078 38.8005 14.7766C39.5986 12.7704 40.3946 10.7695 41.1404 8.75763C41.2421 8.55538 41.3201 8.40571 41.408 8.30015C41.4878 8.2043 41.5378 8.19002 41.5841 8.19002H41.6081L41.632 8.18707C41.6832 8.18072 41.7351 8.18588 41.784 8.20212C41.8328 8.21834 41.8773 8.24526 41.9145 8.28092L41.9291 8.29503L41.9452 8.30753C44.6859 10.4395 44.8101 14.3126 43.1863 17.8486Z" stroke="#D79B1E" stroke-width="0.78"/>
<path d="M43.7474 19.8201L44.0047 19.3731C45.148 17.3868 45.8377 15.1378 45.801 13.0557C45.7645 10.9832 45.011 9.08606 43.2724 7.7392L43.2541 7.725L43.2375 7.70872C43.1258 7.59865 42.9921 7.51358 42.8451 7.4591L42.8451 7.45909C42.6981 7.40459 42.5413 7.38192 42.3849 7.39255L42.3716 7.39345H42.3584C42.0495 7.39345 41.8296 7.52375 41.6491 7.71666C41.4611 7.91756 41.3314 8.16944 41.2137 8.40077C41.2115 8.4062 41.2079 8.41521 41.2024 8.42893L41.16 8.53541C41.1239 8.62647 41.0727 8.75606 41.0083 8.91949C40.8796 9.24627 40.6983 9.70762 40.4799 10.265C40.0431 11.3797 39.4576 12.8782 38.8459 14.452C37.6212 17.603 36.2956 21.0456 35.845 22.3215L35.5688 23.1033L35.1427 22.3921C34.2734 20.9412 32.7424 20.387 31.2398 20.5906C29.7308 20.7951 28.2891 21.7615 27.6426 23.3135L27.4861 23.689L27.1175 23.5168C25.9647 22.9784 24.9345 22.2092 24.0906 21.2569L24.069 21.2325L24.0518 21.2049C23.585 20.4579 23.3782 19.7591 23.5856 18.991C23.7829 18.2603 24.3402 17.5351 25.1989 16.6772L25.1989 16.6772C25.2723 16.6039 25.3134 16.5046 25.3135 16.4012C25.3136 16.2976 25.2725 16.1983 25.1994 16.1251C25.1261 16.0517 25.0268 16.0105 24.9234 16.0104C24.8199 16.0103 24.7206 16.0513 24.6474 16.1244C23.8484 16.9234 23.1847 17.7313 22.8994 18.626C22.6251 19.4863 22.6865 20.4746 23.4386 21.6866C24.4303 22.8323 25.6664 23.7409 27.056 24.3456L27.3161 24.4588L27.2885 24.7411C27.2536 25.099 27.2565 25.4594 27.2972 25.8165L27.3412 26.2023L26.9557 26.248C25.5387 26.4161 24.2006 26.9903 23.1029 27.9017L23.0946 27.9086L23.086 27.915C22.2485 28.536 21.6721 29.4468 21.4698 30.4695C21.2676 31.4912 21.4529 32.5514 21.9894 33.444C22.0444 33.5307 22.1313 33.5923 22.2316 33.6156L22.1435 33.9955M43.7474 19.8201L34.0298 28.9906C33.3191 29.54 32.4427 29.8314 31.5445 29.8169V29.8169H31.5382H31.1648C30.4192 29.7089 29.712 29.4175 29.1069 28.9686L29.1069 28.9686C28.4945 28.5144 28.0061 27.9137 27.6866 27.2214L27.5721 26.9735L27.3 26.9962C25.6599 27.1331 24.0767 27.8936 23.1041 28.9835C22.6153 29.5312 22.2703 30.1745 22.1661 30.8743C22.0611 31.58 22.2054 32.3157 22.651 33.0282C22.7058 33.1161 22.7234 33.2221 22.7001 33.323L23.0801 33.4108M43.7474 19.8201L44.2476 19.9459M43.7474 19.8201L44.2476 19.9459M22.1435 33.9955L22.2313 33.6155C22.3322 33.6389 22.4383 33.6212 22.5263 33.5663C22.6142 33.5114 22.6767 33.4239 22.7002 33.3227L23.0801 33.4108M22.1435 33.9955C22.3452 34.0422 22.5572 34.0067 22.7328 33.8971C22.9085 33.7874 23.0333 33.6125 23.0801 33.4108M22.1435 33.9955C21.9417 33.9487 21.7669 33.8239 21.6572 33.6483L22.9816 32.8215C23.0913 32.9971 23.1267 33.2091 23.0801 33.4108M44.2476 19.9459C45.5529 20.2742 46.7102 21.0314 47.5338 22.0961C48.3551 23.1581 48.7969 24.4648 48.7888 25.8072C48.7138 27.0467 48.2413 28.2291 47.4413 29.1791C46.6392 30.1316 45.5506 30.7994 44.3382 31.0829L43.8746 31.1913L44.0721 31.6245C45.0539 33.7782 45.3597 36.1791 44.9492 38.5102L44.9492 38.5102L44.948 38.5174C44.7786 39.5973 44.2951 40.6033 43.5575 41.4097L43.5574 41.4097C42.8198 42.2163 41.861 42.7878 40.8006 43.0526L40.787 43.056L40.7737 43.0604C40.7471 43.0691 40.7237 43.0773 40.7033 43.0846L44.2476 19.9459ZM39.5854 14.7531L39.5843 14.7529L39.5726 14.7823C38.3897 17.7558 37.1674 20.8284 36.1141 23.9337L35.8889 24.5976L36.5718 24.4388C38.9085 23.8953 40.8615 22.3896 42.2993 20.5028C43.7362 18.617 44.6773 16.3273 44.9812 14.1664C45.1508 13.0781 45.0328 11.9645 44.6391 10.9358C44.2451 9.90623 43.5885 8.99765 42.7345 8.30037L42.6887 8.26297L42.6339 8.24083C42.4867 8.18139 42.3481 8.21687 42.2569 8.27061C42.1802 8.31577 42.1303 8.37577 42.1034 8.41148C42.0471 8.48617 41.9973 8.5839 41.9519 8.68213C41.8571 8.88761 41.7287 9.21479 41.5486 9.68557C41.4818 9.86017 41.4072 10.0563 41.3238 10.2757C40.9532 11.2507 40.407 12.6872 39.5854 14.7531ZM44.1825 38.3959L44.1898 38.3586V38.3538C44.6406 35.9378 44.2322 33.4399 43.0347 31.293L42.6941 31.483L43.0347 31.293C41.8311 29.1352 39.9071 27.4693 37.5993 26.5869L36.9019 26.3202L37.0814 27.045C37.3163 27.9928 37.6538 29.4393 38.0353 31.0742C38.3184 32.2875 38.6257 33.6046 38.9333 34.8985C39.6504 37.9162 40.3739 40.8317 40.782 41.936L40.9329 42.3442L41.3222 42.1497C42.0539 41.7841 42.6922 41.2556 43.1881 40.605L43.1881 40.6049C43.6839 39.9542 44.0241 39.1985 44.1825 38.3959Z" stroke="#D79B1E" stroke-width="0.78"/>
<path d="M220.796 163.414L220.796 163.414L220.801 163.41L235.629 150.586C235.63 150.585 235.63 150.585 235.63 150.585C237.919 148.636 240.698 147.351 243.665 146.867L243.665 146.867C246.632 146.384 249.675 146.721 252.465 147.842C252.466 147.843 252.466 147.843 252.466 147.843L270.3 155.057L270.3 155.057L270.306 155.059C271.055 155.351 271.719 155.826 272.239 156.442C272.757 157.056 273.112 157.792 273.272 158.581L273.272 158.581L273.273 158.586L290.507 238.144C290.507 238.144 290.507 238.144 290.507 238.145C290.775 239.425 290.537 240.76 289.844 241.871C289.151 242.979 288.057 243.776 286.79 244.097L241.909 253.915C241.909 253.915 241.908 253.916 241.908 253.916C240.628 254.183 239.293 253.945 238.184 253.252L238.183 253.252C237.076 252.561 236.278 251.468 235.956 250.203L219.326 168.246L219.323 168.232L219.318 168.217C219.074 167.36 219.084 166.45 219.346 165.596C219.607 164.745 220.111 163.987 220.796 163.414ZM237.977 253.583C236.782 252.837 235.921 251.656 235.576 250.289L237.977 253.583ZM243.602 146.482L243.602 146.482L243.602 146.482Z" stroke="#D79B1E" stroke-width="0.78"/>
<path d="M244.995 154.899C246.102 154.899 246.999 154.001 246.999 152.894C246.999 151.787 246.102 150.889 244.995 150.889C243.887 150.889 242.99 151.787 242.99 152.894C242.99 154.001 243.887 154.899 244.995 154.899Z" fill="white"/>
<path d="M240.864 255.197C239.468 255.207 238.109 254.742 237.011 253.881C235.911 253.021 235.136 251.812 234.809 250.455L218.178 168.48C217.882 167.414 217.901 166.285 218.23 165.229C218.559 164.173 219.186 163.234 220.035 162.524L234.866 149.697C237.318 147.606 240.296 146.226 243.477 145.708C246.658 145.19 249.92 145.555 252.909 146.762L270.739 153.973C271.668 154.338 272.49 154.928 273.131 155.691C273.774 156.454 274.215 157.365 274.415 158.341L291.65 237.901C291.982 239.483 291.687 241.134 290.828 242.502C289.966 243.872 288.609 244.853 287.04 245.241C240.876 255.236 241.901 255.197 240.864 255.197ZM235.872 150.888L221.052 163.706C220.425 164.229 219.961 164.922 219.72 165.702C219.478 166.482 219.467 167.315 219.688 168.101L236.34 250.137C236.646 251.297 237.383 252.297 238.404 252.93C239.426 253.562 240.649 253.779 241.825 253.536L286.714 243.717C287.879 243.416 288.884 242.678 289.519 241.656C290.154 240.635 290.372 239.407 290.126 238.229L272.891 158.669C272.744 157.945 272.418 157.268 271.944 156.702C271.469 156.136 270.861 155.697 270.173 155.426L252.317 148.2C249.592 147.102 246.619 146.771 243.719 147.245C240.82 147.719 238.106 148.979 235.872 150.888Z" fill="#D79B1E"/>
<path d="M246.47 216.793C242.259 212.463 239.392 207.007 238.213 201.084C233.283 178.464 250.44 164.713 264.027 177.955C272.216 185.935 275.437 200.714 271.311 211.377C266.853 222.899 255.396 225.492 246.47 216.793ZM252.672 178.815C242.064 178.815 239.59 201.694 250.666 212.488C253.46 215.21 256.511 216.388 259.26 215.782C268.901 213.682 270.164 192.335 259.831 182.264C257.982 180.228 255.416 178.991 252.672 178.815Z" fill="white"/>
<path d="M245.764 150.219C244.773 145.995 242.906 142.027 240.282 138.572C237.66 135.117 234.338 132.252 230.537 130.163C221.198 125.106 207.193 124.619 203.237 114.337C203.202 114.238 203.149 114.147 203.079 114.069C203.009 113.99 202.925 113.927 202.829 113.883C202.734 113.839 202.631 113.814 202.527 113.81C202.422 113.806 202.318 113.824 202.22 113.861C202.121 113.899 202.032 113.956 201.957 114.029C201.881 114.101 201.822 114.189 201.781 114.285C201.739 114.382 201.719 114.486 201.719 114.591C201.719 114.695 201.741 114.799 201.781 114.896C206.059 126.02 220.604 126.557 229.789 131.533C233.348 133.488 236.462 136.16 238.936 139.379C241.41 142.598 243.19 146.296 244.163 150.237C243.525 150.437 242.981 150.859 242.628 151.427C242.276 151.995 242.14 152.671 242.244 153.332C242.349 153.992 242.687 154.592 243.199 155.023C243.709 155.454 244.358 155.687 245.027 155.679C245.695 155.671 246.339 155.424 246.84 154.981C247.341 154.538 247.665 153.93 247.754 153.267C247.843 152.605 247.692 151.932 247.327 151.373C246.96 150.813 246.406 150.403 245.764 150.219ZM244.995 154.119C244.717 154.115 244.447 154.016 244.233 153.839C244.018 153.662 243.87 153.417 243.812 153.144C243.756 152.872 243.793 152.588 243.92 152.34C244.046 152.091 244.252 151.893 244.506 151.779C244.549 151.995 244.589 152.214 244.628 152.432C244.659 152.607 244.75 152.765 244.882 152.882C245.017 152.999 245.185 153.067 245.363 153.074C245.539 153.082 245.714 153.029 245.857 152.924C245.999 152.819 246.102 152.669 246.149 152.498C246.213 152.682 246.23 152.878 246.204 153.071C246.176 153.263 246.102 153.447 245.988 153.605C245.876 153.764 245.726 153.893 245.553 153.982C245.382 154.071 245.19 154.118 244.995 154.119Z" fill="#D79B1E"/>
<path d="M36.9998 243L64.9998 92L186 119.5L170 302C167.167 295.5 148.8 280.6 97.9998 273C47.1998 265.4 36.1664 249.833 36.9998 243Z" fill="#C1C1C1" fill-opacity="0.1"/>
</svg>
