<svg width="312" height="312" viewBox="0 0 312 312" fill="none" xmlns="http://www.w3.org/2000/svg">
<path d="M273.804 134.413L195.708 112.189L40.4362 127.702C40.3012 127.715 40.1746 127.772 40.075 127.865C39.9757 127.957 39.9089 128.079 39.8849 128.212C39.8608 128.346 39.881 128.483 39.9423 128.604C40.0034 128.725 40.1023 128.823 40.224 128.883C117.988 166.68 117.692 166.713 118.027 166.649L273.756 135.625C273.893 135.597 274.018 135.525 274.109 135.418C274.199 135.312 274.252 135.178 274.257 135.038C274.263 134.898 274.221 134.76 274.14 134.647C274.057 134.533 273.939 134.451 273.804 134.413Z" fill="#2A2A2A"/>
<path d="M242.565 124.368C242.565 167.307 204.7 202.188 157.902 202.188C111.103 202.188 73.2383 167.307 73.2383 124.368C73.2383 81.4279 111.103 46.5481 157.902 46.5481C204.7 46.5481 242.565 81.4279 242.565 124.368Z" stroke="white"/>
<path d="M220.86 71.6041C212.99 62.5561 197.206 53.1571 179.8 49.2493C172.38 47.4132 164.538 48.5019 157.899 52.2897C155 53.4519 155.891 57.029 155.618 58.5297C155.163 61.1162 152.576 62.7885 150.144 63.5498C147.712 64.3111 144.973 64.7666 142.845 66.286C140.686 67.3656 140.037 70.186 144.364 71.9145C145.885 72.5214 150.448 73.1298 150.136 75.5634C149.832 78.4525 142.988 78.6054 141.163 79.3651C132.951 82.8626 125.803 92.7483 124.131 101.264C122.832 107.437 125.031 114.481 131.43 114.799C133.396 114.628 135.335 114.22 137.202 113.582C142.829 112.518 148.759 115.712 152.105 120.275C155.451 124.838 156.972 130.616 157.732 136.396C158.01 137.918 157.905 139.485 157.428 140.957C155.968 143.587 151.723 144.857 156.211 151.147C159.484 155.682 162.986 160.047 166.705 164.224C167.449 165.126 168.462 165.766 169.594 166.05C170.858 166.017 172.081 165.591 173.092 164.833C180.999 159.359 187.083 151.754 193.014 144.15C194.838 141.87 196.512 138.98 195.144 136.547C194.565 135.766 193.902 135.052 193.166 134.417C190.885 131.68 192.102 127.27 194.535 124.685C196.969 122.1 200.162 120.275 202.747 117.841C204.572 116.169 206.7 113.279 205.636 110.693C204.572 108.107 201.683 108.716 199.396 107.957C197.109 107.197 194.986 105.674 196.659 103.242C198.331 100.81 202.438 101.111 204.719 100.352C207.912 99.2879 211.41 96.8543 211.716 93.5081C211.716 89.1401 214.967 88.5956 217.19 89.7063C218.89 90.849 220.255 92.424 221.144 94.2693C230.287 110.23 229.682 109.49 230.573 110.085C232.094 110.846 233.158 108.259 233.007 106.587C232.851 104.458 231.333 90.1634 236.504 96.7029C234.395 87.7173 226.792 78.5929 220.86 71.6041Z" fill="#E8B51B"/>
<path d="M237.132 96.5454C234.917 87.2104 226.744 77.5712 221.332 71.1876C214.426 63.2535 199.208 52.959 179.948 48.6347C172.403 46.7662 164.428 47.8644 157.669 51.7032C156.862 52.0884 156.182 52.697 155.709 53.4567C154.651 55.0416 155.299 56.7935 155.006 58.4097C154.492 61.3097 151.012 62.6108 149.959 62.9415C147.541 63.6965 144.696 64.1895 142.566 65.7167C142.045 66.0019 141.595 66.3995 141.247 66.8806C140.899 67.3617 140.663 67.9143 140.555 68.4982C140.452 69.6214 140.992 71.222 144.143 72.4809C145.547 73.0425 149.759 73.6836 149.533 75.4854C149.294 77.7521 142.705 78.0407 140.936 78.7786C132.98 82.17 125.336 91.9855 123.537 101.127C122.133 107.785 124.645 115.077 131.493 115.409C133.485 115.241 135.449 114.83 137.34 114.184C143.137 113.083 148.692 116.63 151.625 120.63C154.433 124.463 156.238 129.642 157.143 136.505C157.4 137.882 157.318 139.302 156.904 140.64C156.165 141.974 154.666 142.98 153.987 144.501C153.152 146.448 153.822 148.824 155.717 151.484C159.002 156.036 162.517 160.418 166.249 164.611C167.116 165.646 168.3 166.366 169.617 166.661C171.008 166.632 172.354 166.167 173.47 165.334C181.161 160.009 187.104 152.758 193.524 144.528C196.232 141.143 196.946 138.428 195.653 136.144C195.074 135.359 194.41 134.641 193.669 134.006C191.627 131.555 192.776 127.476 195.012 125.1C197.364 122.604 200.609 120.716 203.191 118.289C204.259 117.309 207.638 113.847 206.236 110.443C205.019 107.487 201.809 108.079 199.622 107.352C199.032 107.232 198.475 106.99 197.985 106.641C197.497 106.291 197.087 105.842 196.782 105.324C196.709 105.022 196.708 104.706 196.781 104.404C196.853 104.101 196.998 103.821 197.2 103.586C198.684 101.428 202.628 101.714 204.944 100.934C208.155 99.8651 212.024 97.2896 212.367 93.4988C212.392 92.7927 212.484 92.0905 212.643 91.4021C213.123 89.8421 215.451 89.513 216.881 90.2243C218.493 91.3141 219.786 92.8138 220.625 94.5689L228.939 109.057C229.221 109.714 229.703 110.266 230.316 110.634C232.344 111.646 233.842 108.771 233.651 106.533C232.768 96.221 234.007 95.7186 234.229 95.6313C234.414 95.5564 235.009 95.7779 236.037 97.079C236.126 97.19 236.249 97.2676 236.388 97.2989C236.525 97.3303 236.67 97.3134 236.798 97.2512C236.926 97.1891 237.029 97.0854 237.09 96.957C237.149 96.8286 237.165 96.6835 237.132 96.5454ZM233.768 94.4675C231.325 95.4316 232.144 103.592 232.405 106.636C232.514 107.907 231.712 109.912 230.94 109.557C230.205 109.069 230.708 109.663 221.724 93.9824C220.772 92.02 219.309 90.3497 217.49 89.1464C215.306 88.0544 212.172 88.6612 211.428 91.1026C211.248 91.8706 211.144 92.6543 211.116 93.4426C210.832 96.5766 207.398 98.7996 204.545 99.7512C202.289 100.503 198.032 100.165 196.168 102.871C194.38 105.473 196.149 107.506 199.222 108.531C201.526 109.298 204.18 108.735 205.077 110.913C205.946 113.024 204.235 115.629 202.338 117.368C199.762 119.793 196.586 121.596 194.098 124.24C191.446 127.064 190.198 131.786 192.793 134.887C193.469 135.47 194.08 136.123 194.617 136.836C195.577 138.541 194.899 140.801 192.539 143.749C186.179 151.904 180.301 159.078 172.747 164.309C171.883 164.964 170.846 165.352 169.763 165.427C168.748 165.17 167.843 164.594 167.18 163.783C163.476 159.621 159.987 155.272 156.728 150.754C155.584 149.152 154.31 146.899 155.126 144.994C155.493 144.308 155.963 143.681 156.519 143.136C157.11 142.532 157.623 141.854 158.043 141.119C158.551 139.564 158.664 137.906 158.369 136.296C157.444 129.262 155.561 123.895 152.627 119.888C149.159 115.159 143.042 111.827 137.027 112.974C135.23 113.589 133.367 113.987 131.476 114.159C130.131 114.085 128.836 113.624 127.746 112.831C126.657 112.038 125.82 110.947 125.336 109.69C121.386 99.5328 131.548 84.1278 141.418 79.9236C143.218 79.1748 150.407 79.0766 150.778 75.6227C151.154 72.6104 146.32 71.9973 144.611 71.3171C143.268 70.7805 141.693 69.8741 141.786 68.7213C141.861 68.3091 142.029 67.9194 142.278 67.5825C142.527 67.2455 142.849 66.9702 143.221 66.7775C145.444 65.5309 147.847 64.6363 150.344 64.1255C153.613 63.1037 155.82 61.0445 156.247 58.6218C156.531 57.0618 156.023 55.2491 156.74 54.1696C157.094 53.5862 157.609 53.1171 158.222 52.8186C164.728 49.1122 172.409 48.0466 179.677 49.8422C197.397 53.8217 212.771 63.227 220.393 71.9942C225.298 77.7786 232.508 86.2853 235.302 94.6516C235.079 94.5032 234.823 94.4092 234.558 94.3773C234.291 94.3454 234.021 94.3763 233.768 94.4675Z" fill="#C1C1C1" fill-opacity="0.1"/>
<path d="M159.073 45.4273C112.741 44.8407 71.6736 79.351 71.9763 124.139C72.2477 164.401 105.925 203.312 157.9 203.312C212.197 203.312 248.049 159.516 243.442 116.192C239.459 78.7395 204.414 46.0029 159.073 45.4273ZM229.054 166.284C221.296 170.698 213.113 174.318 204.626 177.085C214.415 162.973 219.961 146.355 220.608 129.193C228.176 125.619 235.336 121.243 241.969 116.139C243.983 133.874 239.385 151.728 229.054 166.284ZM96.3404 122.71C107.717 129.71 120.144 134.84 133.145 137.904C134.044 154.908 136.613 169.903 140.321 181.233C129.332 179.129 118.659 175.623 108.561 170.804C100.146 156.2 95.9179 139.56 96.3404 122.71ZM219.395 128.388C207.735 133.79 195.327 137.402 182.59 139.101C183.671 121.369 182.785 103.571 179.95 86.0341C189.408 84.7552 198.608 82.0105 207.22 77.8987C216.041 93.2112 220.267 110.739 219.395 128.388ZM134.351 136.912C133.388 119.115 134.469 101.266 137.574 83.7159C150.989 87.1749 164.944 88.0222 178.679 86.2119C181.544 103.743 182.431 121.541 181.321 139.271C165.648 141.245 149.749 140.446 134.351 136.912ZM181.24 140.534C180.139 157.42 177.34 172.296 173.473 183.189C162.868 183.94 152.212 183.373 141.747 181.501C138.003 170.269 135.361 155.187 134.415 138.208C149.771 141.688 165.615 142.475 181.24 140.534ZM179.733 84.8048C176.226 65.3922 170.172 51.374 162.901 46.9264C180.627 48.7329 196.258 60.0538 206.572 76.8285C198.093 80.8618 189.039 83.5526 179.733 84.8048ZM178.462 84.978C164.877 86.7568 151.077 85.9094 137.811 82.482C147.462 33.5729 169.414 35.1328 178.462 84.978ZM136.57 82.1497C128.143 79.8984 120.156 76.2441 112.943 71.3404C123.121 57.6124 137.191 48.5286 152.908 46.9264C145.964 51.1681 140.136 64.1161 136.57 82.1497ZM136.333 83.3743C133.238 100.94 132.147 118.8 133.08 136.612C120.095 133.512 107.699 128.328 96.3731 121.26C96.7258 103.754 102.232 86.7405 112.202 72.3466C119.568 77.3546 127.726 81.083 136.333 83.3743ZM140.78 182.59C144.089 192.187 148.245 198.956 152.9 201.805C135.468 200.028 120.065 189.052 109.749 172.737C119.645 177.293 130.069 180.604 140.78 182.595V182.59ZM142.209 182.846C152.374 184.606 162.712 185.15 173.005 184.469C164.001 208.502 150.995 207.879 142.209 182.851V182.846ZM174.386 184.369C183.508 183.66 192.532 182.001 201.31 179.416C191.277 192.011 177.832 200.282 162.901 201.805C167.263 199.14 171.188 193.028 174.386 184.373V184.369ZM174.854 183.08C178.716 172.085 181.451 157.281 182.516 140.364C195.246 138.69 207.654 135.126 219.332 129.791C218.584 147.058 212.776 163.725 202.629 177.717C193.592 180.509 184.278 182.309 174.85 183.085L174.854 183.08ZM241.792 114.698C235.243 119.807 228.16 124.193 220.669 127.781C221.418 110.138 217.141 92.6449 208.336 77.3371C212.071 75.4479 215.618 73.2081 218.93 70.6478C231.321 82.3179 239.381 97.8514 241.788 114.702L241.792 114.698ZM218.009 69.7851C214.78 72.2663 211.325 74.438 207.688 76.2716C199.394 62.748 187.696 52.6828 174.217 48.1245C190.585 51.0099 205.782 58.5269 218.009 69.7851ZM111.929 70.6182C109.276 68.6894 106.813 66.5122 104.572 64.1161C115.5 55.983 128.172 50.5077 141.583 48.1245C129.637 52.4242 119.291 60.2726 111.929 70.6182ZM103.576 64.882C105.892 67.3702 108.444 69.6283 111.196 71.6244C101.219 86.0073 95.6468 102.984 95.1594 120.482C88.2291 116.019 81.8211 110.792 76.0557 104.901C80.6957 88.9535 90.3456 74.9225 103.576 64.882ZM75.6704 106.295C81.5447 112.218 88.0639 117.464 95.1064 121.934C94.5696 138.643 98.5301 155.189 106.574 169.844C96.6304 164.886 87.295 158.792 78.7545 151.685C72.8379 137.289 71.7555 121.36 75.6704 106.295ZM79.8262 154.169C88.4124 161.087 97.7645 166.997 107.699 171.781C116.015 185.649 127.88 195.977 141.583 200.611C113.614 195.565 90.545 177.801 79.8262 154.169ZM174.217 200.616C185.897 196.424 196.049 188.826 203.364 178.803C211.654 176.218 219.672 172.831 227.305 168.688C214.219 185.587 195.28 196.978 174.217 200.616Z" fill="white"/>
<path d="M162.773 62.2958C141.557 81.0158 141.293 88.8157 143.373 116.116C208.793 157.456 115.974 251.992 84.7739 168.376C53.5739 84.7598 117.533 53.7159 151.853 49.0359C160.693 45.6559 183.989 43.5758 162.773 62.2958Z" fill="#C1C1C1" fill-opacity="0.1"/>
<path d="M204.132 142.617C206.591 140.982 207.516 137.79 209.608 135.773C211.31 134.133 212.812 136.513 211.737 138.664C210.825 141.4 205.653 154.175 202.005 153.871C200.179 153.715 198.641 148.698 198.963 147.18C199.541 144.436 202.02 144.019 204.132 142.617Z" fill="#E8B51B"/>
<path d="M211.719 134.918C209.859 133.577 207.95 136.608 206.727 138.558C204.761 141.678 204.267 141.915 202.236 142.965C200.585 143.82 198.879 144.704 198.356 147.057C198.008 148.795 199.604 154.499 202.127 154.499C206.744 154.499 212.281 139.02 212.299 138.943C212.678 138.307 212.828 137.561 212.722 136.828C212.616 136.095 212.262 135.421 211.719 134.918ZM211.143 138.466C209.755 142.629 204.841 153.498 202.055 153.25C200.835 153.149 199.294 148.695 199.57 147.322C200.12 144.845 202.473 144.501 204.485 143.14C207.055 141.4 207.87 138.321 210.048 136.223C210.326 135.954 210.672 135.711 210.984 135.939C211.278 136.288 211.451 136.721 211.479 137.176C211.508 137.631 211.39 138.083 211.143 138.466Z" fill="#2A2A2A"/>
<path d="M273.129 135.623L272.828 233.001L118.404 265.336V166.447L273.129 135.623Z" fill="#1A1A1A" stroke="#D79B1E"/>
<path d="M40.9961 129.122L117.405 166.35V265.077L40.9961 220.044V129.122Z" fill="#1A1A1A" stroke="#D79B1E"/>
<path d="M274.029 134.531C273.664 134.23 273.964 134.311 117.99 165.383L40.7716 127.764C40.6763 127.717 40.5708 127.696 40.4649 127.701C40.359 127.706 40.2562 127.739 40.1663 127.795C40.0763 127.851 40.0022 127.93 39.9509 128.022C39.8996 128.115 39.8727 128.219 39.873 128.325V220.333C39.8737 220.442 39.9028 220.548 39.9576 220.643C40.0122 220.737 40.0907 220.815 40.1851 220.869L117.745 266.557L273.461 234.022C273.602 233.992 273.728 233.916 273.818 233.805C273.909 233.694 273.959 233.555 273.959 233.412C274.361 134.541 274.394 134.831 274.029 134.531ZM41.1226 129.324L117.282 166.432V264.868L41.1226 219.972V129.324ZM272.706 232.908L118.53 265.184V166.549L273.001 135.774L272.706 232.908Z" fill="#2A2A2A"/>
<path d="M117.807 165.547L117.086 165.69L117.484 166.308L156.872 227.443L157.064 227.74L157.408 227.658L304.315 192.833L304.946 192.683L304.641 192.111L274.072 134.778L273.898 134.45L273.534 134.523L117.807 165.547Z" fill="#C1C1C1" fill-opacity="0.1" stroke="#D79B1E"/>
<path d="M157.293 227.796C157.189 227.796 157.086 227.769 156.994 227.721C156.902 227.671 156.824 227.598 156.768 227.51L117.381 166.376C117.326 166.29 117.292 166.193 117.284 166.092C117.275 165.99 117.291 165.887 117.331 165.794C117.37 165.7 117.432 165.617 117.511 165.553C117.59 165.489 117.683 165.446 117.783 165.425L273.51 134.402C273.641 134.375 273.777 134.391 273.897 134.447C274.019 134.503 274.119 134.597 274.183 134.714C305.008 192.456 304.969 192.155 304.77 192.598C304.55 193.087 157.451 227.796 157.293 227.796ZM118.925 166.469L157.579 226.464L303.264 191.927L273.3 135.72L118.925 166.469Z" fill="#2A2A2A"/>
<path d="M40.7158 127.873L40.3211 127.681L40.0794 128.047L7.38338 177.624L7.0881 178.072L7.55541 178.335L84.5071 221.676L84.9308 221.915L85.1811 221.498L118.334 166.294L118.615 165.827L118.125 165.588L40.7158 127.873Z" fill="#C1C1C1" fill-opacity="0.1" stroke="#D79B1E"/>
<path d="M84.7505 221.866L7.48832 178.444C7.41361 178.402 7.34834 178.345 7.29658 178.277C7.24483 178.208 7.20769 178.13 7.1875 178.047C7.1673 177.963 7.16448 177.877 7.17919 177.793C7.1939 177.707 7.22585 177.628 7.27304 177.556L39.9707 127.978C40.0541 127.851 40.1808 127.76 40.3268 127.72C40.473 127.68 40.6285 127.695 40.7647 127.761C118.56 165.608 118.378 165.44 118.503 165.859C118.627 166.279 118.659 166.015 85.2871 221.562C85.2317 221.656 85.1531 221.732 85.059 221.785C84.965 221.838 84.8586 221.866 84.7505 221.866ZM8.68952 177.684L84.5289 220.4L117.019 166.296L40.7163 129.123L8.68952 177.684Z" fill="#2A2A2A"/>
<path d="M127.318 255.764C127.318 252.094 127.474 248.535 127.623 245.092C127.629 244.931 127.698 244.778 127.814 244.667C127.931 244.557 128.086 244.494 128.247 244.494C133.689 244.494 135.613 248.965 133.824 252.545C132.911 255.333 130.819 255.687 128.094 256.369C128.002 256.392 127.906 256.394 127.813 256.374C127.72 256.355 127.633 256.314 127.558 256.255C127.484 256.197 127.423 256.122 127.382 256.037C127.34 255.952 127.318 255.859 127.318 255.764ZM128.842 245.77C128.713 248.751 128.588 251.818 128.569 254.957C130.597 254.422 131.947 254.249 132.672 252.068C133.947 249.499 133.011 246.168 128.842 245.77Z" fill="#E8B51B"/>
<path d="M144.671 252.584C144.505 252.584 144.347 252.519 144.23 252.402C144.113 252.285 144.047 252.126 144.047 251.96C144.047 249.21 144.203 246.268 144.351 243.422C144.358 243.257 144.431 243.101 144.553 242.989C144.675 242.876 144.836 242.817 145.002 242.825C145.167 242.833 145.323 242.904 145.435 243.026C145.547 243.148 145.606 243.31 145.599 243.475C145.463 246.06 145.321 248.736 145.298 251.249C146.411 251.079 147.507 250.812 148.574 250.455C148.731 250.402 148.902 250.414 149.05 250.489C149.198 250.563 149.311 250.692 149.363 250.85C149.416 251.007 149.403 251.179 149.33 251.325C149.255 251.474 149.126 251.586 148.969 251.639C147.575 252.108 146.134 252.427 144.671 252.584Z" fill="#E8B51B"/>
<path d="M151.195 251.018C151.342 248.073 151.498 245.117 151.498 242.229C151.498 242.064 151.564 241.905 151.681 241.788C151.798 241.671 151.956 241.605 152.122 241.605C152.287 241.605 152.446 241.671 152.563 241.788C152.68 241.905 152.746 242.064 152.746 242.229C152.746 245.177 152.59 248.11 152.434 251.08C152.409 251.232 152.329 251.369 152.21 251.466C152.091 251.561 151.94 251.611 151.787 251.603C151.634 251.595 151.488 251.531 151.379 251.424C151.27 251.316 151.205 251.171 151.195 251.018Z" fill="#E8B51B"/>
<path d="M141.111 252.286C139.752 252.751 138.357 253.104 136.939 253.339L136.989 249.957C138.129 249.842 139.249 249.588 140.326 249.199C140.48 249.14 140.604 249.023 140.672 248.873C140.739 248.722 140.745 248.552 140.687 248.397C140.629 248.243 140.512 248.118 140.363 248.049C140.213 247.981 140.042 247.974 139.888 248.031C138.957 248.366 137.99 248.589 137.007 248.695L137.05 245.711C137.063 245.698 140.442 244.65 140.442 244.65C140.596 244.599 140.724 244.489 140.798 244.344C140.873 244.199 140.888 244.032 140.84 243.876C140.793 243.72 140.687 243.591 140.544 243.511C140.402 243.433 140.235 243.413 140.078 243.457L136.646 244.499C136.096 244.55 135.866 245.082 135.84 245.591C135.791 246.321 135.787 248.262 135.676 254.074C135.674 254.157 135.689 254.239 135.72 254.316C135.751 254.394 135.797 254.463 135.855 254.522C135.913 254.581 135.982 254.628 136.059 254.661C136.135 254.692 136.217 254.709 136.3 254.709C138.077 254.447 139.827 254.03 141.531 253.461C141.681 253.402 141.803 253.286 141.87 253.138C141.937 252.991 141.944 252.823 141.89 252.67C141.835 252.517 141.724 252.392 141.578 252.321C141.433 252.249 141.265 252.236 141.111 252.286Z" fill="#E8B51B"/>
<path d="M157.449 249.68C156.84 247.243 156.23 244.655 155.622 242.067C155.584 241.906 155.612 241.736 155.699 241.596C155.786 241.455 155.926 241.354 156.087 241.316C156.248 241.279 156.418 241.305 156.558 241.393C156.698 241.48 156.8 241.621 156.837 241.781C157.283 243.678 157.73 245.577 158.176 247.414L160.815 240.337C160.873 240.182 160.99 240.056 161.141 239.987C161.291 239.919 161.464 239.912 161.619 239.97C161.773 240.028 161.899 240.145 161.968 240.296C162.037 240.446 162.043 240.619 161.985 240.774L158.639 249.745C158.592 249.87 158.508 249.978 158.396 250.049C158.285 250.123 158.152 250.158 158.02 250.151C157.887 250.143 157.759 250.095 157.656 250.009C157.553 249.924 157.482 249.809 157.449 249.68Z" fill="#E8B51B"/>
<path d="M168.74 246.48C167.292 246.744 166.088 247.318 164.806 247.67C164.857 246.709 164.909 245.67 164.952 244.606C166.076 244.318 166.954 244.031 168.091 243.747C168.252 243.706 168.391 243.605 168.475 243.463C168.561 243.321 168.586 243.151 168.545 242.99C168.506 242.828 168.403 242.691 168.261 242.605C168.119 242.521 167.949 242.494 167.788 242.535C166.717 242.803 165.954 243.048 165.001 243.302C165.033 242.301 165.057 241.298 165.063 240.338C166.135 240.173 167.183 239.876 168.183 239.457C168.33 239.388 168.445 239.265 168.503 239.114C168.561 238.962 168.558 238.794 168.494 238.646C168.43 238.496 168.311 238.377 168.161 238.315C168.012 238.252 167.843 238.251 167.692 238.31C166.628 238.75 165.506 239.043 164.363 239.178C164.211 239.196 164.071 239.27 163.97 239.385C163.87 239.5 163.814 239.649 163.815 239.802C163.815 247.787 163.191 248.467 163.722 248.937C163.792 248.999 163.876 249.046 163.968 249.071C164.058 249.096 164.154 249.101 164.247 249.084C165.929 248.772 167.403 247.992 168.962 247.714C169.125 247.684 169.27 247.591 169.366 247.455C169.461 247.318 169.497 247.149 169.467 246.985C169.439 246.823 169.345 246.676 169.208 246.583C169.072 246.488 168.904 246.45 168.74 246.48Z" fill="#E8B51B"/>
<path d="M177.862 245.04C177.111 244.042 176.341 243.012 175.481 242.076C176.174 241.638 176.71 240.992 177.012 240.229C177.196 239.858 177.269 239.441 177.221 239.029C177.174 238.618 177.007 238.229 176.743 237.909C176.48 237.589 176.129 237.354 175.734 237.229C175.338 237.104 174.915 237.098 174.516 237.209C173.7 237.348 172.899 237.561 172.124 237.85C172.02 237.892 171.927 237.961 171.859 238.051C171.79 238.142 171.748 238.248 171.736 238.36C171.43 241.11 171.277 243.875 171.275 246.642C171.275 246.808 171.341 246.967 171.458 247.084C171.575 247.201 171.734 247.266 171.899 247.266C172.065 247.266 172.224 247.201 172.341 247.084C172.458 246.967 172.523 246.808 172.523 246.642C172.523 245.382 172.558 244.113 172.623 242.845C173.138 242.686 173.668 242.581 174.205 242.533C175.16 243.564 176.051 244.653 176.871 245.794C176.976 245.912 177.121 245.985 177.277 246.001C177.434 246.017 177.59 245.971 177.717 245.876C177.841 245.781 177.926 245.642 177.954 245.486C177.98 245.332 177.948 245.173 177.862 245.04ZM172.695 241.518C172.756 240.635 172.834 239.755 172.927 238.878C173.55 238.681 174.185 238.525 174.828 238.41C174.999 238.352 175.185 238.348 175.358 238.398C175.533 238.447 175.687 238.55 175.801 238.691C175.915 238.83 175.985 239.003 175.999 239.182C176.013 239.363 175.971 239.544 175.881 239.7C175.748 240.112 175.503 240.479 175.175 240.761C174.848 241.043 174.448 241.229 174.021 241.299C173.57 241.315 173.124 241.388 172.692 241.518H172.695Z" fill="#E8B51B"/>
<path d="M183.972 236.747C183.42 237.845 182.771 238.894 182.033 239.878C181.234 238.975 180.456 238.182 179.665 237.26C179.556 237.143 179.404 237.072 179.244 237.064C179.083 237.054 178.925 237.107 178.802 237.212C178.681 237.316 178.604 237.465 178.587 237.625C178.571 237.784 178.618 237.945 178.718 238.072C178.812 238.181 181.485 241.168 181.609 241.243C181.682 242.358 181.682 243.477 181.609 244.592C181.59 244.756 181.638 244.921 181.741 245.051C181.844 245.18 181.996 245.263 182.159 245.282C183.251 245.422 182.852 243.468 182.852 241.163C182.852 240.795 182.811 240.94 183.008 240.65C183.78 239.616 184.462 238.518 185.047 237.366C185.109 237.226 185.116 237.067 185.069 236.922C185.02 236.775 184.921 236.652 184.786 236.575C184.654 236.499 184.496 236.474 184.346 236.505C184.197 236.536 184.063 236.624 183.972 236.747Z" fill="#E8B51B"/>
<path d="M246.258 230.991C246.102 230.991 245.954 230.933 245.839 230.829C245.723 230.722 245.653 230.579 245.637 230.424C245.623 230.27 245.667 230.116 245.761 229.991C245.854 229.868 245.99 229.783 246.143 229.754L264.395 226.256C264.554 226.233 264.716 226.272 264.847 226.365C264.977 226.459 265.067 226.599 265.097 226.757C265.128 226.914 265.095 227.078 265.008 227.212C264.921 227.348 264.785 227.443 264.629 227.481L246.258 230.991Z" fill="#E8B51B"/>
<path d="M253.557 224.603C253.403 224.603 253.253 224.543 253.138 224.439C253.024 224.334 252.952 224.191 252.938 224.036C252.924 223.882 252.968 223.727 253.061 223.603C253.155 223.479 253.291 223.395 253.444 223.366L264.849 221.236C265.011 221.205 265.179 221.241 265.317 221.334C265.452 221.428 265.548 221.573 265.577 221.735C265.608 221.898 265.573 222.066 265.479 222.203C265.385 222.339 265.24 222.434 265.078 222.464L253.557 224.603Z" fill="#E8B51B"/>
</svg>
