<svg width="34" height="38" viewBox="0 0 34 38" fill="none" xmlns="http://www.w3.org/2000/svg">
<path fill-rule="evenodd" clip-rule="evenodd" d="M2.42179 28.4563L2.95467 14.5411L3.48755 0.625977L22.9922 1.37291L22.8234 3.18304C22.7614 4.15118 22.5762 5.08971 22.4224 5.20824C22.2924 5.35258 19.3051 5.38749 7.79344 5.14573L7.17545 24.5323L10.7735 24.7945L11.392 8.643L31.5178 9.41372L30.6852 31.1561L27.5875 34.0735C25.8829 35.7004 24.3398 37.0099 24.1659 37.0033L23.7249 37.2352C23.7249 37.2352 20.9426 37.3526 10.4362 36.8508L10.6212 28.7703L2.42179 28.4563ZM27.1073 13.4752L15.7026 13.0385L14.9509 32.6688L18.181 32.7925C18.4332 26.8547 18.5812 25.5912 18.7894 25.3503C19.0493 25.0617 19.8224 25.0166 22.8289 25.1317L26.5559 25.2745L27.1073 13.4752ZM25.4194 29.6107C25.2528 29.4565 24.793 29.3154 24.3739 29.2969C24.378 29.2971 24.3822 29.2972 24.3863 29.2974L24.3615 29.2964C24.3656 29.2966 24.3697 29.2968 24.3739 29.2969C23.9541 29.2833 23.4602 29.388 23.2568 29.5527C23.0265 29.7181 22.9071 30.2361 22.9063 30.908C22.9083 31.5053 23.0613 32.0586 23.2324 32.1398C23.3786 32.2201 23.9376 31.918 24.4268 31.4888C24.9409 31.0606 25.4339 30.532 25.5418 30.3121C25.6249 30.0914 25.5876 29.7664 25.4194 29.6107Z" fill="#D79B1E"/>
</svg>
