<svg width="24" height="25" viewBox="0 0 24 25" fill="none" xmlns="http://www.w3.org/2000/svg">
<g clip-path="url(#clip0_1200_1139)">
<path d="M4 22.6846C4 23.215 4.21071 23.7237 4.58579 24.0988C4.96086 24.4739 5.46957 24.6846 6 24.6846C6.53043 24.6846 7.03914 24.4739 7.41421 24.0988C7.78929 23.7237 8 23.215 8 22.6846C8 22.1541 7.78929 21.6454 7.41421 21.2704C7.03914 20.8953 6.53043 20.6846 6 20.6846C5.46957 20.6846 4.96086 20.8953 4.58579 21.2704C4.21071 21.6454 4 22.1541 4 22.6846Z" stroke="white" stroke-width="2" stroke-linecap="round" stroke-linejoin="round"/>
<path d="M15 22.6846C15 23.215 15.2107 23.7237 15.5858 24.0988C15.9609 24.4739 16.4696 24.6846 17 24.6846C17.5304 24.6846 18.0391 24.4739 18.4142 24.0988C18.7893 23.7237 19 23.215 19 22.6846C19 22.1541 18.7893 21.6454 18.4142 21.2704C18.0391 20.8953 17.5304 20.6846 17 20.6846C16.4696 20.6846 15.9609 20.8953 15.5858 21.2704C15.2107 21.6454 15 22.1541 15 22.6846Z" stroke="white" stroke-width="2" stroke-linecap="round" stroke-linejoin="round"/>
<path d="M17 20.6846H6V6.68457H4" stroke="white" stroke-width="2" stroke-linecap="round" stroke-linejoin="round"/>
<path d="M6 8.68457L20 9.68457L19 16.6846H6" fill="#D9D9D9" fill-opacity="0.1"/>
<path d="M6 8.68457L20 9.68457L19 16.6846H6" stroke="white" stroke-width="2" stroke-linecap="round" stroke-linejoin="round"/>
</g>
<defs>
<clipPath id="clip0_1200_1139">
<rect width="24" height="24" fill="white" transform="translate(0 0.409424)"/>
</clipPath>
</defs>
</svg>
