<svg width="24" height="24" viewBox="0 0 24 24" fill="none" xmlns="http://www.w3.org/2000/svg">
<path d="M1.99968 10.96C1.88358 10.8962 1.78156 10.8096 1.69971 10.7054C1.61786 10.6012 1.55787 10.4816 1.52333 10.3537C1.48878 10.2258 1.4804 10.0922 1.49867 9.961C1.51695 9.82978 1.5615 9.7036 1.62968 9.59L3.12968 7C3.23968 6.8 3.40968 6.66 3.59968 6.58L11.4297 2.18C11.5897 2.06 11.7897 2 11.9997 2C12.2097 2 12.4097 2.06 12.5697 2.18L20.4697 6.62C20.6597 6.72 20.8197 6.88 20.9097 7.08L22.3597 9.6C22.6397 10.08 22.4697 10.69 21.9997 10.96L20.9997 11.54V16.5C20.9997 16.88 20.7897 17.21 20.4697 17.38L12.5697 21.82C12.4097 21.94 12.2097 22 11.9997 22C11.7897 22 11.5897 21.94 11.4297 21.82L3.52968 17.38C3.36929 17.2958 3.23506 17.1693 3.14161 17.0141C3.04816 16.859 2.99907 16.6811 2.99968 16.5V10.96C2.69968 11.13 2.31968 11.14 1.99968 10.96ZM11.9997 4.15V10.85L17.9597 7.5L11.9997 4.15ZM4.99968 15.91L10.9997 19.29V12.58L4.99968 9.21V15.91ZM18.9997 15.91V12.69L13.9997 15.59C13.6697 15.77 13.2997 15.76 12.9997 15.6V19.29L18.9997 15.91ZM13.8497 13.36L20.1297 9.73L19.5497 8.72L13.2697 12.35L13.8497 13.36Z" fill="white"/>
</svg>
