<svg width="21" height="20" viewBox="0 0 21 20" fill="none" xmlns="http://www.w3.org/2000/svg">
<g clip-path="url(#clip0_190_4259)">
<g clip-path="url(#clip1_190_4259)">
<path d="M6.31586 2.56164C7.05341 2.43597 7.80976 2.47742 8.52916 2.68294C9.24856 2.88847 9.91267 3.25282 10.4725 3.74914L10.5034 3.77664L10.5317 3.75164C11.066 3.28272 11.6942 2.93313 12.3743 2.7262C13.0545 2.51928 13.7709 2.45976 14.4759 2.55164L14.6809 2.58164C15.5694 2.73506 16.4 3.12593 17.0846 3.71286C17.7691 4.29979 18.2823 5.06092 18.5696 5.91566C18.8569 6.77041 18.9077 7.68693 18.7166 8.56819C18.5255 9.44945 18.0997 10.2626 17.4842 10.9216L17.3342 11.0758L17.2942 11.11L11.0859 17.2591C10.9426 17.4009 10.7528 17.486 10.5516 17.4986C10.3504 17.5111 10.1515 17.4503 9.99169 17.3275L9.91336 17.2591L3.66919 11.0741C3.00771 10.4305 2.53727 9.61637 2.30999 8.72186C2.08271 7.82735 2.10744 6.88738 2.38146 6.00607C2.65547 5.12475 3.16807 4.33647 3.86249 3.72853C4.55691 3.12059 5.40605 2.71672 6.31586 2.56164Z" fill="#D79B1E" stroke="white" stroke-width="1.25" stroke-linecap="round" stroke-linejoin="round"/>
</g>
</g>
<defs>
<clipPath id="clip0_190_4259">
<rect width="20" height="20" fill="white" transform="translate(0.5)"/>
</clipPath>
<clipPath id="clip1_190_4259">
<rect width="20" height="20" fill="white" transform="translate(0.5)"/>
</clipPath>
</defs>
</svg>
