<svg width="18" height="19" viewBox="0 0 18 19" fill="none" xmlns="http://www.w3.org/2000/svg">
<path d="M17.4727 12.9767C17.7539 13.1173 17.9648 13.4337 17.9648 13.7853C17.9648 13.8204 17.9648 13.8907 17.9648 13.9611L17.1211 17.6173C17.0156 18.004 16.6992 18.2501 16.3125 18.2501C7.27734 18.2501 0 10.9728 0 1.93762C0 1.5509 0.246094 1.2345 0.632812 1.12903L4.28906 0.285278C4.35938 0.285278 4.42969 0.250122 4.46484 0.250122C4.81641 0.250122 5.13281 0.46106 5.27344 0.777466L6.96094 4.71497C6.99609 4.82043 7.03125 4.9259 7.03125 5.03137C7.03125 5.31262 6.89062 5.55872 6.71484 5.69934L4.57031 7.45715C5.87109 10.1993 8.05078 12.379 10.793 13.6798L12.5508 11.5353C12.6914 11.3595 12.9375 11.2189 13.1836 11.2189C13.3242 11.2189 13.4297 11.254 13.5352 11.2892L17.4727 12.9767Z" fill="#666666"/>
</svg>
