<svg width="24" height="25" viewBox="0 0 24 25" fill="none" xmlns="http://www.w3.org/2000/svg">
<g clip-path="url(#clip0_1200_1111)">
<path d="M3 11.6379C3 12.5572 3.18106 13.4674 3.53284 14.3167C3.88463 15.166 4.40024 15.9377 5.05025 16.5877C5.70026 17.2377 6.47194 17.7533 7.32122 18.1051C8.1705 18.4569 9.08075 18.6379 10 18.6379C10.9193 18.6379 11.8295 18.4569 12.6788 18.1051C13.5281 17.7533 14.2997 17.2377 14.9497 16.5877C15.5998 15.9377 16.1154 15.166 16.4672 14.3167C16.8189 13.4674 17 12.5572 17 11.6379C17 10.7187 16.8189 9.80843 16.4672 8.95916C16.1154 8.10988 15.5998 7.3382 14.9497 6.68819C14.2997 6.03818 13.5281 5.52257 12.6788 5.17078C11.8295 4.819 10.9193 4.63794 10 4.63794C9.08075 4.63794 8.1705 4.819 7.32122 5.17078C6.47194 5.52257 5.70026 6.03818 5.05025 6.68819C4.40024 7.3382 3.88463 8.10988 3.53284 8.95916C3.18106 9.80843 3 10.7187 3 11.6379Z" fill="#D9D9D9" fill-opacity="0.1" stroke="#DBDBDB" stroke-width="2" stroke-linecap="round" stroke-linejoin="round"/>
<path d="M21 22.6379L15 16.6379" stroke="#DBDBDB" stroke-width="2" stroke-linecap="round" stroke-linejoin="round"/>
</g>
<defs>
<clipPath id="clip0_1200_1111">
<rect width="24" height="24" fill="white" transform="translate(0 0.409424)"/>
</clipPath>
</defs>
</svg>
