<svg width="24" height="25" viewBox="0 0 24 25" fill="none" xmlns="http://www.w3.org/2000/svg">
<g clip-path="url(#clip0_1200_1133)">
<path d="M19.5003 15.0285L12.0003 22.4565L4.5003 15.0285C4.00561 14.5471 3.61594 13.9685 3.35585 13.3291C3.09575 12.6897 2.97086 12.0034 2.98904 11.3134C3.00721 10.6234 3.16806 9.94461 3.46146 9.31981C3.75485 8.69501 4.17444 8.13773 4.69379 7.68306C5.21314 7.22838 5.82101 6.88616 6.47911 6.67796C7.13722 6.46975 7.83131 6.40006 8.51767 6.47328C9.20403 6.54649 9.8678 6.76103 10.4672 7.10338C11.0666 7.44573 11.5885 7.90848 12.0003 8.46248C12.4138 7.9125 12.9364 7.4538 13.5354 7.11508C14.1344 6.77636 14.7968 6.56493 15.4812 6.494C16.1657 6.42307 16.8574 6.49417 17.5131 6.70287C18.1688 6.91156 18.7743 7.25335 19.2919 7.70684C19.8094 8.16033 20.2277 8.71576 20.5207 9.33837C20.8137 9.96098 20.975 10.6374 20.9946 11.3252C21.0142 12.013 20.8916 12.6975 20.6344 13.3357C20.3773 13.974 19.9912 14.5523 19.5003 15.0345" fill="#D9D9D9" fill-opacity="0.1"/>
<path d="M19.5003 15.0285L12.0003 22.4565L4.5003 15.0285C4.00561 14.5471 3.61594 13.9685 3.35585 13.3291C3.09575 12.6897 2.97086 12.0034 2.98904 11.3134C3.00721 10.6234 3.16806 9.94461 3.46146 9.31981C3.75485 8.69501 4.17444 8.13773 4.69379 7.68306C5.21314 7.22838 5.82101 6.88616 6.47911 6.67796C7.13722 6.46975 7.83131 6.40006 8.51767 6.47328C9.20403 6.54649 9.8678 6.76103 10.4672 7.10338C11.0666 7.44573 11.5885 7.90848 12.0003 8.46248C12.4138 7.9125 12.9364 7.4538 13.5354 7.11508C14.1344 6.77636 14.7968 6.56493 15.4812 6.494C16.1657 6.42307 16.8574 6.49417 17.5131 6.70287C18.1688 6.91156 18.7743 7.25335 19.2919 7.70684C19.8094 8.16033 20.2277 8.71576 20.5207 9.33837C20.8137 9.96098 20.975 10.6374 20.9946 11.3252C21.0142 12.013 20.8916 12.6975 20.6344 13.3357C20.3773 13.974 19.9912 14.5523 19.5003 15.0345" stroke="white" stroke-width="2" stroke-linecap="round" stroke-linejoin="round"/>
</g>
<defs>
<clipPath id="clip0_1200_1133">
<rect width="24" height="24" fill="white" transform="translate(0 0.409424)"/>
</clipPath>
</defs>
</svg>
