<svg width="21" height="17" viewBox="0 0 21 17" fill="none" xmlns="http://www.w3.org/2000/svg">
<path d="M9.90625 4.4884C9.97656 4.41809 10.082 4.38293 10.1875 4.38293C10.2578 4.38293 10.3633 4.41809 10.4336 4.4884L16.9375 9.797V15.5626C16.9375 15.879 16.6562 16.1251 16.375 16.1251H12.4023C12.1211 16.1251 11.8398 15.879 11.8398 15.5626V12.1876C11.8398 11.9064 11.5938 11.6251 11.2773 11.6251H9.02734C8.74609 11.6251 8.46484 11.9064 8.46484 12.1876V15.5626C8.46484 15.879 8.21875 16.1251 7.9375 16.1251H4C3.68359 16.1251 3.4375 15.879 3.4375 15.5626V9.83215L9.90625 4.4884ZM20.1367 8.1095C20.2422 8.17981 20.3125 8.32043 20.3125 8.4259C20.3125 8.53137 20.2773 8.63684 20.207 8.70715L19.293 9.797C19.2227 9.90247 19.1172 9.93762 18.9766 9.93762C18.8711 9.93762 18.7656 9.90247 18.6953 9.83215L10.4336 3.047C10.3633 2.97668 10.2578 2.94153 10.1875 2.94153C10.082 2.94153 9.97656 2.97668 9.90625 3.047L1.64453 9.83215C1.57422 9.90247 1.46875 9.93762 1.36328 9.93762C1.22266 9.93762 1.11719 9.90247 1.04688 9.797L0.132812 8.70715C0.0976562 8.63684 0.0273438 8.53137 0.0273438 8.4259C0.0273438 8.32043 0.0976562 8.17981 0.203125 8.1095L9.09766 0.761841C9.37891 0.550903 9.76562 0.410278 10.1875 0.410278C10.5742 0.410278 10.9609 0.550903 11.2422 0.761841L14.4062 3.3634V0.832153C14.4062 0.58606 14.582 0.410278 14.8281 0.410278H16.7969C17.0078 0.410278 17.2188 0.58606 17.2188 0.832153V5.68372L20.1367 8.1095Z" fill="#666666"/>
</svg>
