<svg width="18" height="15" viewBox="0 0 18 15" fill="none" xmlns="http://www.w3.org/2000/svg">
<path d="M17.6484 5.10498C17.7891 4.99951 18 5.10498 18 5.28076V12.4526C18 13.4019 17.2266 14.1401 16.3125 14.1401H1.6875C0.738281 14.1401 0 13.4019 0 12.4526V5.28076C0 5.10498 0.175781 4.99951 0.316406 5.10498C1.125 5.73779 2.14453 6.51123 5.73047 9.11279C6.46875 9.64014 7.73438 10.8003 9 10.8003C10.2305 10.8003 11.5312 9.64014 12.2344 9.11279C15.8203 6.51123 16.8398 5.73779 17.6484 5.10498ZM9 9.64014C8.15625 9.67529 6.99609 8.62061 6.39844 8.19873C1.72266 4.82373 1.37109 4.50732 0.316406 3.66357C0.105469 3.52295 0 3.27686 0 2.99561V2.32764C0 1.41357 0.738281 0.640137 1.6875 0.640137H16.3125C17.2266 0.640137 18 1.41357 18 2.32764V2.99561C18 3.27686 17.8594 3.52295 17.6484 3.66357C16.5938 4.50732 16.2422 4.82373 11.5664 8.19873C10.9688 8.62061 9.80859 9.67529 9 9.64014Z" fill="#666666"/>
</svg>
