<svg width="22" height="22" viewBox="0 0 22 22" fill="none" xmlns="http://www.w3.org/2000/svg">
<g clip-path="url(#clip0_1219_7776)">
<path d="M7.8252 6.75271C7.8252 7.69156 8.19815 8.59196 8.86202 9.25582C9.52589 9.91969 10.4263 10.2926 11.3651 10.2926C12.304 10.2926 13.2044 9.91969 13.8682 9.25582C14.5321 8.59196 14.9051 7.69156 14.9051 6.75271C14.9051 5.81386 14.5321 4.91346 13.8682 4.24959C13.2044 3.58573 12.304 3.21277 11.3651 3.21277C10.4263 3.21277 9.52589 3.58573 8.86202 4.24959C8.19815 4.91346 7.8252 5.81386 7.8252 6.75271Z" stroke="white" stroke-width="1.32748" stroke-linecap="round" stroke-linejoin="round"/>
<path d="M6.05469 19.1425V17.3725C6.05469 16.4337 6.42764 15.5333 7.09151 14.8694C7.75538 14.2055 8.65578 13.8326 9.59463 13.8326H13.1346C14.0734 13.8326 14.9738 14.2055 15.6377 14.8694C16.3015 15.5333 16.6745 16.4337 16.6745 17.3725V19.1425" stroke="white" stroke-width="1.32748" stroke-linecap="round" stroke-linejoin="round"/>
</g>
<defs>
<clipPath id="clip0_1219_7776">
<rect width="21.2396" height="21.2396" fill="white" transform="translate(0.745117 0.557861)"/>
</clipPath>
</defs>
</svg>
