<svg width="20" height="20" viewBox="0 0 20 20" fill="none" xmlns="http://www.w3.org/2000/svg">
<g clip-path="url(#clip0_190_4323)">
<g clip-path="url(#clip1_190_4323)">
<path d="M-2 -2H22V22H-2V-2Z" stroke="white" stroke-width="1.25" stroke-linecap="round" stroke-linejoin="round"/>
<path d="M2 17C2 17.5304 2.21071 18.0391 2.58579 18.4142C2.96086 18.7893 3.46957 19 4 19C4.53043 19 5.03914 18.7893 5.41421 18.4142C5.78929 18.0391 6 17.5304 6 17C6 16.4696 5.78929 15.9609 5.41421 15.5858C5.03914 15.2107 4.53043 15 4 15C3.46957 15 2.96086 15.2107 2.58579 15.5858C2.21071 15.9609 2 16.4696 2 17Z" fill="#D79B1E" stroke="white" stroke-width="1.25" stroke-linecap="round" stroke-linejoin="round"/>
<path d="M13 17C13 17.5304 13.2107 18.0391 13.5858 18.4142C13.9609 18.7893 14.4696 19 15 19C15.5304 19 16.0391 18.7893 16.4142 18.4142C16.7893 18.0391 17 17.5304 17 17C17 16.4696 16.7893 15.9609 16.4142 15.5858C16.0391 15.2107 15.5304 15 15 15C14.4696 15 13.9609 15.2107 13.5858 15.5858C13.2107 15.9609 13 16.4696 13 17Z" fill="#D79B1E" stroke="white" stroke-width="1.25" stroke-linecap="round" stroke-linejoin="round"/>
<path d="M15 15H4V1H2" stroke="white" stroke-width="1.25" stroke-linecap="round" stroke-linejoin="round"/>
<path d="M4 3L18 4L17 11H4" fill="#D79B1E"/>
<path d="M4 3L18 4L17 11H4" stroke="white" stroke-width="1.25" stroke-linecap="round" stroke-linejoin="round"/>
</g>
</g>
<defs>
<clipPath id="clip0_190_4323">
<rect width="20" height="20" fill="white"/>
</clipPath>
<clipPath id="clip1_190_4323">
<rect width="24" height="24" fill="white" transform="translate(-2 -2)"/>
</clipPath>
</defs>
</svg>
