<svg width="22" height="22" viewBox="0 0 22 22" fill="none" xmlns="http://www.w3.org/2000/svg">
<path d="M2.99609 10.2945V13.6669C2.99609 15.5115 3.07031 16.8875 3.15273 17.8468C3.2431 18.8986 4.07235 19.675 5.12603 19.7396C6.34507 19.8142 8.23038 19.8894 10.878 19.8894C13.5256 19.8894 15.4109 19.8142 16.6299 19.7396C17.6836 19.675 18.5129 18.8986 18.6032 17.8468C18.6857 16.8875 18.7599 15.5115 18.7599 13.6669V10.2945" stroke="white" stroke-width="1.32748" stroke-linecap="round" stroke-linejoin="round"/>
<path d="M14.1713 19.8457C14.1861 19.3064 14.196 18.6382 14.196 17.815C14.196 16.3361 14.1642 15.3575 14.1291 14.728C14.0925 14.0722 13.708 13.5277 13.0615 13.4118C12.5742 13.3245 11.8704 13.2518 10.8773 13.2518C9.88413 13.2518 9.18036 13.3245 8.69309 13.4118C8.04652 13.5277 7.66205 14.0722 7.62551 14.728C7.59041 15.3575 7.55859 16.3361 7.55859 17.815C7.55859 18.6382 7.56847 19.3064 7.58324 19.8457" stroke="white" stroke-width="1.32748" stroke-linecap="round" stroke-linejoin="round"/>
<path d="M3.44817 4.09072C3.72875 3.3421 4.37019 2.80073 5.16479 2.71266C6.22689 2.59493 8.03807 2.46606 10.8776 2.46606C13.7171 2.46606 15.5283 2.59493 16.5904 2.71266C17.385 2.80073 18.0264 3.3421 18.307 4.09072C19.5892 7.51168 19.5892 8.57943 19.5892 8.57943C19.5892 9.78528 18.6141 10.7628 17.4113 10.7628C16.2084 10.7628 15.2334 9.78528 15.2334 8.57943C15.2334 9.78528 14.2583 10.7628 13.0555 10.7628C11.8527 10.7628 10.8776 9.78528 10.8776 8.57943C10.8776 9.78528 9.90251 10.7628 8.69969 10.7628C7.49687 10.7628 6.5218 9.78528 6.5218 8.57943C6.5218 9.78528 5.54673 10.7628 4.34391 10.7628C3.14109 10.7628 2.16602 9.78528 2.16602 8.57943C2.16602 8.57943 2.16602 7.51168 3.44817 4.09072Z" stroke="white" stroke-width="1.32748" stroke-linecap="round" stroke-linejoin="round"/>
</svg>
