<svg width="21" height="20" viewBox="0 0 21 20" fill="none" xmlns="http://www.w3.org/2000/svg">
<path d="M3.07812 9.16846V12.344C3.07812 14.081 3.14801 15.3766 3.22562 16.2799C3.31072 17.2704 4.09156 18.0015 5.08375 18.0623C6.23164 18.1326 8.00691 18.2034 10.5 18.2034C12.9931 18.2034 14.7684 18.1326 15.9163 18.0623C16.9084 18.0015 17.6893 17.2704 17.7744 16.2799C17.852 15.3766 17.9219 14.081 17.9219 12.344V9.16846" fill="#D79B1E" fill-opacity="0.5"/>
<path d="M3.07812 9.16846V12.344C3.07812 14.081 3.14801 15.3766 3.22562 16.2799C3.31072 17.2704 4.09156 18.0015 5.08375 18.0623C6.23164 18.1326 8.00691 18.2034 10.5 18.2034C12.9931 18.2034 14.7684 18.1326 15.9163 18.0623C16.9084 18.0015 17.6893 17.2704 17.7744 16.2799C17.852 15.3766 17.9219 14.081 17.9219 12.344V9.16846" stroke="white" stroke-width="1.25" stroke-linecap="round" stroke-linejoin="round"/>
<path d="M13.6018 18.1621C13.6157 17.6543 13.625 17.0252 13.625 16.25C13.625 14.8574 13.595 13.9359 13.562 13.3432C13.5276 12.7256 13.1655 12.2129 12.5567 12.1037C12.0979 12.0215 11.4352 11.9531 10.5 11.9531C9.5648 11.9531 8.90211 12.0215 8.44328 12.1037C7.83445 12.2129 7.47242 12.7256 7.43801 13.3432C7.40496 13.9359 7.375 14.8574 7.375 16.25C7.375 17.0252 7.3843 17.6543 7.3982 18.1621" fill="white"/>
<path d="M3.5042 3.32671C3.7684 2.62179 4.37241 2.11201 5.12063 2.02907C6.12074 1.91822 7.82621 1.79688 10.5 1.79688C13.1738 1.79688 14.8793 1.91822 15.8794 2.02907C16.6276 2.11201 17.2316 2.62179 17.4958 3.32671C18.7031 6.54801 18.7031 7.55344 18.7031 7.55344C18.7031 8.68891 17.785 9.60938 16.6523 9.60938C15.5197 9.60938 14.6016 8.68891 14.6016 7.55344C14.6016 8.68891 13.6834 9.60938 12.5508 9.60938C11.4182 9.60938 10.5 8.68891 10.5 7.55344C10.5 8.68891 9.58184 9.60938 8.44922 9.60938C7.3166 9.60938 6.39844 8.68891 6.39844 7.55344C6.39844 8.68891 5.48027 9.60938 4.34766 9.60938C3.21504 9.60938 2.29688 8.68891 2.29688 7.55344C2.29688 7.55344 2.29688 6.54801 3.5042 3.32671Z" fill="#D79B1E" stroke="white" stroke-width="1.25" stroke-linecap="round" stroke-linejoin="round"/>
</svg>
