<svg width="23" height="22" viewBox="0 0 23 22" fill="none" xmlns="http://www.w3.org/2000/svg">
<g clip-path="url(#clip0_1219_7761)">
<g clip-path="url(#clip1_1219_7761)">
<path d="M6.95089 3.27826C7.73416 3.1448 8.53739 3.18883 9.30138 3.40709C10.0654 3.62535 10.7706 4.01228 11.3652 4.53936L11.3979 4.56857L11.428 4.54202C11.9955 4.04403 12.6626 3.67278 13.3849 3.45303C14.1072 3.23327 14.868 3.17007 15.6167 3.26764L15.8344 3.2995C16.778 3.46243 17.6601 3.87753 18.3871 4.50084C19.1141 5.12414 19.659 5.93246 19.9641 6.84018C20.2692 7.74789 20.3232 8.72123 20.1203 9.65711C19.9173 10.593 19.4651 11.4566 18.8115 12.1564L18.6522 12.3201L18.6097 12.3564L12.0165 18.8867C11.8644 19.0373 11.6628 19.1277 11.4492 19.141C11.2355 19.1543 11.0243 19.0898 10.8546 18.9593L10.7714 18.8867L4.14018 12.3184C3.43769 11.6349 2.9381 10.7703 2.69673 9.8203C2.45536 8.87035 2.48163 7.87212 2.77263 6.93618C3.06363 6.00023 3.608 5.1631 4.34546 4.51748C5.08292 3.87186 5.98469 3.44295 6.95089 3.27826Z" stroke="white" stroke-width="1.32748" stroke-linecap="round" stroke-linejoin="round"/>
</g>
</g>
<defs>
<clipPath id="clip0_1219_7761">
<rect width="21.2396" height="21.2396" fill="white" transform="translate(0.774414 0.557861)"/>
</clipPath>
<clipPath id="clip1_1219_7761">
<rect width="21.2396" height="21.2396" fill="white" transform="translate(0.774414 0.557861)"/>
</clipPath>
</defs>
</svg>
