<svg width="24" height="25" viewBox="0 0 24 25" fill="none" xmlns="http://www.w3.org/2000/svg">
<g clip-path="url(#clip0_1200_1127)">
<path d="M8 9.45679C8 10.5177 8.42143 11.5351 9.17157 12.2852C9.92172 13.0354 10.9391 13.4568 12 13.4568C13.0609 13.4568 14.0783 13.0354 14.8284 12.2852C15.5786 11.5351 16 10.5177 16 9.45679C16 8.39592 15.5786 7.37851 14.8284 6.62836C14.0783 5.87821 13.0609 5.45679 12 5.45679C10.9391 5.45679 9.92172 5.87821 9.17157 6.62836C8.42143 7.37851 8 8.39592 8 9.45679Z" fill="#D9D9D9" fill-opacity="0.1" stroke="white" stroke-width="2" stroke-linecap="round" stroke-linejoin="round"/>
<path d="M6 23.4568V21.4568C6 20.3959 6.42143 19.3785 7.17157 18.6284C7.92172 17.8782 8.93913 17.4568 10 17.4568H14C15.0609 17.4568 16.0783 17.8782 16.8284 18.6284C17.5786 19.3785 18 20.3959 18 21.4568V23.4568" fill="#D9D9D9" fill-opacity="0.1"/>
<path d="M6 23.4568V21.4568C6 20.3959 6.42143 19.3785 7.17157 18.6284C7.92172 17.8782 8.93913 17.4568 10 17.4568H14C15.0609 17.4568 16.0783 17.8782 16.8284 18.6284C17.5786 19.3785 18 20.3959 18 21.4568V23.4568" stroke="white" stroke-width="2" stroke-linecap="round" stroke-linejoin="round"/>
</g>
<defs>
<clipPath id="clip0_1200_1127">
<rect width="24" height="24" fill="white" transform="translate(0 0.409424)"/>
</clipPath>
</defs>
</svg>
